if (_typeface_js && _typeface_js.loadFace) _typeface_js.loadFace({"glyphs":{"0":{"ha":1001,"x_min":157,"x_max":1114,"o":"m 1107 399 q 1112 438 1110 419 q 1114 475 1114 457 q 1089 594 1114 544 q 1019 676 1064 644 q 911 722 974 707 q 774 736 849 736 l 590 736 q 444 699 517 736 q 313 604 372 663 q 213 475 253 546 q 163 338 172 404 q 158 300 160 318 q 157 265 157 282 q 184 136 157 188 q 258 55 211 85 q 371 13 306 25 q 513 0 436 0 l 651 0 q 813 37 735 0 q 952 132 890 74 q 1056 261 1014 190 q 1107 399 1097 332 m 424 357 q 431 383 425 368 q 443 414 436 397 q 477 462 456 438 q 524 506 499 486 q 574 537 549 525 q 622 549 600 549 l 735 549 q 791 538 769 549 q 825 510 813 528 q 842 471 838 493 q 846 426 846 449 q 845 402 846 414 q 843 379 844 390 q 840 367 843 381 l 835 353 q 819 322 832 342 q 783 274 807 299 q 731 231 758 250 q 678 199 704 211 q 636 188 653 188 l 544 188 q 497 201 519 188 q 458 238 475 215 q 432 287 442 260 q 422 339 422 314 l 422 347 q 424 357 422 356 z "},"1":{"ha":451,"x_min":146,"x_max":681,"o":"m 413 0 l 681 736 l 396 736 q 349 695 376 724 q 297 636 322 667 q 252 581 271 606 q 232 550 233 556 l 232 549 l 346 549 l 146 0 l 413 0 z "},"2":{"ha":918,"x_min":78,"x_max":1101,"o":"m 368 196 q 383 186 368 186 l 946 186 q 929 165 946 186 q 888 114 913 143 q 837 53 864 85 q 788 0 810 21 l 156 0 q 97 26 115 0 q 78 89 78 51 q 92 163 78 124 q 131 238 106 201 q 193 306 153 268 q 279 376 233 343 q 372 430 325 408 q 456 451 419 451 l 719 451 q 738 459 721 451 q 764 472 754 467 q 778 480 769 475 q 786 486 786 485 l 792 493 q 806 531 806 507 q 793 547 806 547 l 240 547 q 274 595 254 569 q 317 646 294 621 q 363 694 340 671 q 404 736 385 717 l 1018 736 q 1081 706 1061 736 q 1101 631 1101 675 q 1090 558 1101 594 q 1056 489 1078 521 q 990 416 1031 454 q 901 345 949 378 q 803 292 853 313 q 714 271 754 271 l 436 271 q 414 262 425 271 q 394 242 403 253 l 368 196 z "},"3":{"ha":932,"x_min":39,"x_max":1060,"o":"m 181 189 q 108 101 142 149 q 39 0 75 53 l 651 0 q 784 10 733 0 q 867 42 835 21 q 919 99 899 64 q 960 182 939 133 l 965 197 q 980 241 972 215 q 988 286 988 267 q 972 329 986 314 q 953 356 958 344 q 992 382 972 364 q 1026 424 1011 400 q 1051 476 1042 449 q 1060 529 1060 503 l 1060 532 q 1051 595 1060 560 q 1026 662 1043 631 q 982 715 1008 693 q 919 736 956 736 l 385 736 q 308 644 342 692 q 244 547 275 596 l 764 547 q 777 535 767 547 q 792 517 788 524 q 792 514 792 517 q 794 510 793 511 l 792 503 q 785 491 790 499 q 775 475 781 483 q 765 460 769 467 q 758 454 760 454 l 536 454 l 322 267 l 697 267 q 697 247 697 257 q 693 233 696 238 l 690 226 q 687 222 689 225 q 685 219 685 219 q 672 210 681 215 q 656 201 664 206 q 640 192 647 196 q 633 189 633 189 l 181 189 z "},"4":{"ha":908,"x_min":135,"x_max":1138,"o":"m 869 0 l 603 0 l 751 408 l 608 264 l 135 264 l 307 736 l 571 736 l 467 451 l 767 451 l 871 736 l 1138 736 l 869 0 z "},"5":{"ha":908,"x_min":44,"x_max":1135,"o":"m 661 186 l 189 186 q 164 162 185 186 q 119 106 143 138 q 73 44 94 75 q 44 0 51 14 l 753 0 q 826 23 790 0 q 888 81 861 46 q 932 156 915 115 q 949 233 949 197 l 949 239 q 936 307 949 269 q 901 376 924 344 q 847 430 878 408 q 781 451 817 451 l 517 451 q 505 459 515 451 q 489 472 494 467 q 481 480 486 475 q 475 486 475 485 l 475 493 l 494 547 l 971 547 q 1062 642 1021 594 q 1135 736 1103 689 l 300 736 l 210 490 q 208 477 208 483 q 207 464 207 471 q 225 396 207 431 q 270 333 243 361 q 330 288 297 306 q 392 271 363 271 l 669 271 q 685 262 681 271 q 689 242 689 253 q 661 186 689 214 z "},"6":{"ha":883,"x_min":176,"x_max":1113,"o":"m 950 271 q 958 335 958 306 q 933 415 958 383 q 844 458 907 446 l 467 458 q 517 522 488 494 q 581 549 546 549 l 942 549 q 1031 637 990 590 q 1113 736 1072 683 l 539 736 q 400 699 465 736 q 285 606 335 663 q 206 478 235 549 q 176 340 176 407 l 176 338 q 216 172 176 238 q 321 69 256 107 q 468 15 386 31 q 636 0 550 0 q 736 24 688 0 q 826 86 785 47 q 900 174 868 125 q 950 271 932 222 m 638 282 q 669 266 664 278 q 679 242 675 254 l 644 189 l 564 189 q 515 213 535 189 q 475 269 494 238 l 467 282 l 638 282 z "},"7":{"ha":849,"x_min":78,"x_max":1092,"o":"m 78 0 l 358 0 l 1092 736 l 396 736 q 349 695 376 724 q 297 636 322 667 q 252 581 271 606 q 232 550 233 556 l 232 549 l 606 549 l 78 0 z "},"8":{"ha":975,"x_min":85,"x_max":1103,"o":"m 240 546 q 222 494 229 525 q 214 431 214 463 q 220 385 214 406 q 242 357 226 365 q 203 331 228 346 q 157 288 179 315 q 131 245 143 269 q 113 203 119 221 l 106 182 q 90 128 96 153 q 85 85 85 104 q 94 47 85 63 q 126 20 103 31 q 186 5 149 10 q 281 0 224 0 l 694 0 q 827 10 776 0 q 910 42 878 21 q 962 99 942 64 q 1003 182 982 133 l 1013 210 q 1025 247 1019 226 q 1031 282 1031 267 l 1031 286 q 1015 329 1029 314 q 996 356 1001 344 q 1051 400 1025 368 q 1090 471 1076 432 q 1103 525 1103 501 l 1103 544 q 1094 607 1103 574 q 1068 669 1086 640 q 1024 717 1050 697 q 963 736 997 736 l 549 736 q 410 720 464 736 q 324 680 356 704 q 275 626 292 656 q 249 568 258 596 l 240 546 m 515 517 q 540 540 522 532 q 565 547 558 547 l 807 547 q 821 535 811 546 q 835 517 831 524 l 835 503 q 821 478 832 494 q 806 461 810 461 l 624 461 l 438 300 l 515 517 m 435 189 q 422 201 432 189 q 408 219 413 213 l 410 224 q 410 226 410 225 q 411 228 411 226 l 410 231 l 429 282 l 750 282 q 744 255 750 272 q 736 233 739 238 l 733 226 q 730 222 732 225 q 728 219 728 219 q 715 210 724 215 q 699 201 707 206 q 683 192 690 196 q 676 189 676 189 l 435 189 z "},"9":{"ha":883,"x_min":39,"x_max":974,"o":"m 201 465 q 193 401 193 429 q 219 322 193 353 q 307 278 244 290 l 685 278 q 635 215 664 242 q 571 188 606 188 l 210 188 q 120 99 161 146 q 39 0 79 53 l 613 0 q 749 37 683 0 q 864 131 814 74 q 944 258 914 188 q 974 394 974 328 l 974 399 q 956 563 974 497 q 889 666 938 628 q 753 720 840 704 q 526 736 665 736 l 515 736 q 415 712 464 736 q 325 649 367 688 q 251 563 283 611 q 201 465 219 514 m 514 454 q 481 470 486 458 q 472 494 476 482 l 506 547 l 586 547 q 638 522 617 547 q 678 464 658 496 l 685 454 l 514 454 z "}," ":{"ha":388,"x_min":0,"x_max":0,"o":""},"!":{"ha":344,"x_min":93,"x_max":574,"o":"m 125 238 l 392 238 l 574 736 l 307 736 l 125 238 m 99 97 q 93 65 93 86 q 113 18 93 36 q 169 0 133 0 q 214 8 192 0 q 254 28 236 15 q 300 78 283 49 q 317 131 317 107 q 297 177 317 158 q 240 196 276 196 q 156 167 196 196 q 99 97 115 138 z "},"\"":{"ha":453,"x_min":253,"x_max":656,"o":"m 458 597 l 476 649 q 524 711 490 685 q 594 738 558 738 q 640 722 624 738 q 656 681 656 706 q 650 649 656 660 l 632 597 q 608 558 625 579 q 571 517 590 536 q 532 485 551 499 q 503 472 513 472 l 492 472 q 462 497 469 472 q 454 550 454 522 q 458 597 454 578 m 257 597 l 275 649 q 323 711 289 685 q 393 738 357 738 q 438 722 422 738 q 454 681 454 706 q 449 649 454 660 l 431 597 q 406 558 424 579 q 369 517 389 536 q 331 485 350 499 q 301 472 311 472 l 290 472 q 260 497 268 472 q 253 550 253 522 q 257 597 253 578 z "},"#":{"ha":1038,"x_min":76,"x_max":1226,"o":"m 200 0 l 251 142 l 76 142 l 275 329 l 319 329 l 346 401 l 171 401 l 369 589 l 414 589 l 468 736 l 735 736 l 681 589 l 788 589 l 842 736 l 1108 736 l 1054 589 l 1226 589 l 1028 401 l 986 401 l 960 329 l 1132 329 l 933 142 l 892 142 l 840 0 l 574 0 l 625 142 l 518 142 l 467 0 l 200 0 m 719 401 l 613 401 l 586 329 l 693 329 l 719 401 z "},"$":{"ha":917,"x_min":54,"x_max":1144,"o":"m 306 -196 l 376 0 l 54 0 q 83 44 61 14 q 128 106 104 75 q 174 162 153 138 q 199 186 194 186 l 444 186 l 476 276 l 310 276 q 261 288 279 276 q 233 317 243 299 q 221 359 224 335 q 218 410 218 383 l 218 490 q 238 566 218 524 q 288 647 257 608 q 358 710 319 685 q 436 736 397 736 l 644 736 l 714 929 l 889 929 l 819 736 l 1144 736 q 1072 642 1113 689 q 981 547 1031 594 l 750 547 l 718 457 l 790 457 q 867 435 835 457 q 919 381 899 414 q 949 311 939 349 q 958 242 958 274 l 958 233 q 942 156 958 197 q 898 81 925 115 q 835 23 871 46 q 763 0 800 0 l 551 0 l 481 -196 l 306 -196 m 575 547 l 522 547 q 496 526 507 547 q 485 493 485 506 l 485 486 q 490 480 485 485 q 499 472 496 475 q 515 462 504 467 q 526 457 525 457 l 543 457 l 575 547 m 699 242 q 694 265 699 253 q 679 276 690 276 l 651 276 l 619 186 l 671 186 q 695 199 692 186 q 699 225 699 211 l 699 242 z "},"%":{"ha":1094,"x_min":118,"x_max":1249,"o":"m 118 0 l 356 0 l 1249 736 l 1008 736 l 118 0 m 710 567 q 709 644 718 613 q 678 697 700 676 q 621 727 656 718 q 544 736 586 736 l 453 736 q 389 722 421 736 q 328 683 357 707 q 278 630 300 660 q 246 569 257 600 q 238 536 239 553 q 241 453 231 486 q 276 402 251 421 q 335 376 300 383 q 413 368 371 368 l 482 368 q 553 383 518 368 q 617 421 588 397 q 668 474 646 444 q 701 535 690 504 l 707 550 q 710 567 710 561 m 390 551 l 399 574 q 430 610 410 593 q 468 626 450 626 l 510 626 q 544 613 535 626 q 554 581 554 600 q 553 560 554 564 l 549 550 q 546 543 547 546 q 543 538 544 540 q 528 518 538 528 q 508 501 518 508 q 488 490 497 494 q 472 485 478 485 l 436 485 q 401 508 417 485 q 390 551 386 531 m 1132 199 q 1099 329 1147 290 q 965 368 1050 368 l 874 368 q 810 353 842 368 q 750 315 778 339 q 701 262 722 292 q 668 201 679 232 q 660 168 661 185 q 663 85 653 118 q 698 34 674 53 q 758 8 722 15 q 835 0 793 0 l 904 0 q 975 15 940 0 q 1039 53 1010 29 q 1090 106 1068 76 q 1124 167 1113 136 l 1129 182 q 1131 193 1131 189 q 1132 199 1132 197 m 813 183 l 821 206 q 852 242 832 225 q 890 258 872 258 l 932 258 q 967 245 958 258 q 975 213 975 232 q 974 192 975 196 l 971 182 q 964 169 969 176 q 930 133 953 150 q 894 117 907 117 l 858 117 q 824 140 839 117 q 813 183 808 163 z "},"&":{"ha":1111,"x_min":85,"x_max":1254,"o":"m 1056 274 l 1011 274 q 1003 237 1008 256 q 990 203 997 218 l 983 182 q 942 99 963 133 q 890 42 922 64 q 808 10 858 21 q 675 0 757 0 l 281 0 q 186 5 224 0 q 126 20 149 10 q 94 47 103 31 q 85 85 85 63 q 90 128 85 104 q 106 182 96 153 l 113 203 q 131 245 119 221 q 157 288 143 269 q 203 331 179 315 q 242 357 228 346 q 220 385 226 365 q 214 431 214 406 q 222 494 214 463 q 240 546 229 525 l 249 568 q 275 626 258 596 q 324 680 292 656 q 410 720 356 704 q 549 736 464 736 l 1057 736 q 985 640 1024 688 q 901 547 947 593 l 565 547 q 540 540 558 547 q 515 517 522 532 l 438 300 l 624 461 l 1254 461 l 1056 274 m 657 189 q 664 192 657 189 q 679 201 671 196 q 696 210 688 206 q 708 219 704 215 q 710 222 708 219 q 714 226 713 225 l 717 233 q 725 255 719 238 q 731 282 731 272 l 429 282 l 408 219 q 422 201 413 213 q 435 189 432 189 l 657 189 z "},"'":{"ha":251,"x_min":253,"x_max":454,"o":"m 257 597 l 275 649 q 323 711 289 685 q 393 738 357 738 q 438 722 422 738 q 454 681 454 706 q 449 649 454 660 l 431 597 q 406 558 424 579 q 369 517 389 536 q 331 485 350 499 q 301 472 311 472 l 290 472 q 260 497 268 472 q 253 550 253 522 q 257 597 253 578 z "},"(":{"ha":569,"x_min":165,"x_max":799,"o":"m 165 286 l 165 283 q 183 169 165 218 q 231 83 201 119 q 298 24 261 47 q 372 -15 335 0 q 444 -39 410 -31 q 501 -51 478 -47 q 522 -8 511 -31 q 542 38 533 15 q 558 78 551 60 q 564 110 564 97 l 564 118 q 531 151 554 131 q 483 197 507 172 q 441 250 460 222 q 422 306 422 278 l 422 307 q 430 338 422 315 q 444 381 438 361 l 456 414 q 479 466 464 438 q 515 519 494 494 q 557 561 535 544 q 603 578 579 578 l 626 578 q 717 666 676 619 q 799 765 758 713 l 563 765 q 465 742 514 765 q 373 681 417 719 q 291 594 329 643 q 225 491 253 544 q 181 385 197 438 q 165 288 165 332 l 165 286 z "},")":{"ha":568,"x_min":31,"x_max":663,"o":"m 663 428 l 663 432 q 644 547 663 497 q 596 631 625 596 q 530 691 567 667 q 456 730 493 715 q 385 753 418 744 q 328 765 351 761 q 306 722 317 746 q 285 675 294 699 q 269 631 275 651 q 264 600 264 611 l 264 592 q 309 559 285 579 q 355 514 333 539 q 391 462 376 489 q 406 408 406 435 q 397 374 404 400 q 381 324 389 347 l 372 300 q 348 248 364 276 q 312 194 332 219 q 269 153 292 169 q 225 136 247 136 l 201 136 q 111 48 151 94 q 31 -51 71 1 l 267 -51 q 363 -28 315 -51 q 456 33 411 -6 q 538 120 500 71 q 603 223 575 169 q 647 329 631 276 q 663 426 663 382 l 663 428 z "},"*":{"ha":342,"x_min":268,"x_max":567,"o":"m 401 553 l 392 619 l 333 553 l 268 629 l 335 675 l 276 690 l 350 797 l 390 763 l 407 826 l 528 826 l 494 763 l 567 794 l 567 688 l 489 675 l 522 626 l 401 553 z "},"+":{"ha":640,"x_min":124,"x_max":782,"o":"m 281 136 l 329 271 l 124 271 l 322 458 l 397 458 l 450 601 l 638 601 l 585 458 l 782 458 l 583 271 l 517 271 l 468 136 l 281 136 z "},",":{"ha":289,"x_min":51,"x_max":292,"o":"m 53 39 l 74 97 q 131 167 90 138 q 215 196 171 196 q 272 177 251 196 q 292 131 292 158 q 285 97 292 121 l 264 39 q 238 -5 257 19 q 194 -50 218 -29 q 148 -85 171 -71 q 113 -100 125 -100 l 100 -100 q 75 -91 85 -100 q 60 -67 65 -82 q 53 -35 56 -53 q 51 -1 51 -18 l 51 19 q 53 39 51 35 z "},"-":{"ha":501,"x_min":124,"x_max":643,"o":"m 444 271 l 643 458 l 322 458 l 124 271 l 444 271 z "},".":{"ha":289,"x_min":68,"x_max":292,"o":"m 74 97 q 68 65 68 86 q 88 18 68 36 q 144 0 108 0 q 189 8 167 0 q 229 28 211 15 q 275 78 258 49 q 292 131 292 107 q 272 177 292 158 q 215 196 251 196 q 131 167 171 196 q 74 97 90 138 z "},"/":{"ha":913,"x_min":25,"x_max":1156,"o":"m 321 0 l 25 0 l 858 736 l 1156 736 l 321 0 z "},":":{"ha":290,"x_min":69,"x_max":424,"o":"m 75 97 q 69 65 69 86 q 90 18 69 36 q 146 0 110 0 q 190 8 168 0 q 231 28 213 15 q 276 78 260 49 q 293 131 293 107 q 273 177 293 158 q 217 196 253 196 q 132 167 172 196 q 75 97 92 138 m 206 460 q 200 428 200 449 q 220 381 200 399 q 276 363 240 363 q 321 370 299 363 q 361 390 343 378 q 407 440 390 411 q 424 493 424 469 q 403 540 424 521 q 347 558 383 558 q 263 529 303 558 q 206 460 222 500 z "},";":{"ha":290,"x_min":51,"x_max":424,"o":"m 206 460 q 263 529 222 500 q 347 558 303 558 q 403 540 383 558 q 424 493 424 521 q 417 460 424 481 q 394 421 410 439 q 342 379 374 396 q 276 363 310 363 q 220 381 240 363 q 200 428 200 399 q 206 460 200 449 m 53 39 l 74 97 q 131 167 90 138 q 215 196 171 196 q 272 177 251 196 q 292 131 292 158 q 285 97 292 121 l 264 39 q 238 -5 257 19 q 194 -50 218 -29 q 148 -85 171 -71 q 113 -100 125 -100 l 100 -100 q 75 -91 85 -100 q 60 -67 65 -82 q 53 -35 56 -53 q 51 -1 51 -18 l 51 19 q 53 39 51 35 z "},"<":{"ha":631,"x_min":160,"x_max":872,"o":"m 310 0 l 606 0 l 457 369 l 872 736 l 575 736 l 160 369 l 310 0 z "},"=":{"ha":600,"x_min":78,"x_max":790,"o":"m 592 401 l 790 589 l 371 589 l 172 401 l 592 401 m 497 142 l 696 329 l 276 329 l 78 142 l 497 142 z "},">":{"ha":631,"x_min":25,"x_max":740,"o":"m 321 0 l 25 0 l 443 369 l 294 736 l 592 736 l 740 369 l 321 0 z "},"?":{"ha":908,"x_min":122,"x_max":1092,"o":"m 193 236 l 408 236 l 408 238 q 432 256 411 242 q 497 271 453 271 l 704 271 q 794 292 744 271 q 891 345 843 313 q 980 416 939 378 q 1046 489 1021 454 q 1080 556 1068 519 q 1092 629 1092 593 q 1072 705 1092 674 q 1008 736 1053 736 l 394 736 q 353 694 375 717 q 308 646 331 671 q 265 595 285 621 q 231 547 244 569 l 783 547 q 796 531 796 547 q 782 493 796 507 l 776 486 q 768 480 776 485 q 754 472 760 475 q 728 459 744 467 q 710 451 711 451 l 517 451 q 433 430 481 451 q 340 376 386 408 q 255 306 294 343 q 193 236 215 268 m 128 97 q 122 65 122 86 q 142 18 122 36 q 199 0 163 0 q 243 8 221 0 q 283 28 265 15 q 329 78 313 49 q 346 131 346 107 q 326 177 346 158 q 269 196 306 196 q 185 167 225 196 q 128 97 144 138 z "},"@":{"ha":1043,"x_min":164,"x_max":1164,"o":"m 515 382 q 544 428 524 406 q 590 469 564 451 q 644 497 615 486 q 700 508 674 508 q 764 483 742 508 q 786 421 786 457 q 779 381 786 408 q 776 373 776 376 q 772 367 775 369 l 790 367 q 855 376 828 367 q 893 414 882 385 q 903 463 903 433 q 870 538 903 507 q 779 578 838 568 l 601 578 q 556 561 579 578 q 514 519 533 544 q 478 466 494 494 q 454 414 463 438 q 432 345 443 376 q 421 307 421 314 l 421 306 q 440 250 421 278 q 482 197 458 222 q 529 151 506 172 q 563 118 553 131 q 610 109 576 113 q 667 106 644 106 l 675 106 q 662 64 675 100 q 621 -51 649 28 l 500 -51 q 442 -39 476 -47 q 371 -15 408 -31 q 297 24 333 0 q 230 83 260 47 q 182 169 200 119 q 164 283 164 218 l 164 286 q 190 415 164 346 q 252 540 213 478 q 342 653 292 603 q 448 735 392 704 q 561 767 504 767 l 813 767 q 871 760 836 763 q 944 749 906 757 q 1023 727 983 742 q 1094 685 1063 713 q 1144 613 1125 657 q 1164 504 1164 569 l 1164 500 q 1144 386 1164 444 q 1037 264 1111 294 q 849 233 963 233 l 613 233 q 534 272 554 240 q 514 350 514 304 l 514 365 q 515 382 514 378 m 624 375 q 622 364 622 374 q 643 343 622 343 q 669 352 657 343 q 686 375 682 361 q 689 388 689 389 q 667 407 689 407 q 641 398 653 407 q 624 375 629 389 z "},"A":{"ha":1049,"x_min":28,"x_max":1024,"o":"m 1024 0 l 932 596 q 922 637 928 613 q 907 683 915 661 q 887 721 899 706 q 861 736 875 736 l 628 736 q 603 726 618 736 q 574 702 589 715 q 547 675 560 689 q 531 653 535 661 l 31 14 l 31 10 q 28 0 31 11 l 615 0 q 646 26 625 4 q 688 75 667 49 q 727 125 710 101 q 747 157 744 149 l 776 0 l 1024 0 m 465 200 l 699 513 l 747 186 l 465 186 l 465 200 z "},"B":{"ha":957,"x_min":39,"x_max":1085,"o":"m 307 736 l 39 0 l 676 0 q 799 10 750 0 q 883 42 849 21 q 941 99 918 64 q 985 182 964 133 l 990 197 q 1004 235 997 215 q 1011 274 1011 254 q 997 324 1010 301 q 969 360 985 347 q 1006 385 986 368 q 1044 426 1026 403 q 1073 475 1061 449 q 1085 529 1085 501 l 1085 532 q 1078 608 1085 571 q 1056 674 1072 646 q 1013 719 1040 701 q 944 736 986 736 l 307 736 m 428 336 l 504 547 l 789 547 q 802 535 792 547 q 817 517 813 524 q 817 514 817 517 q 819 510 818 511 l 817 503 q 810 491 815 499 q 800 475 806 483 q 790 460 794 467 q 783 454 785 454 l 561 454 l 428 336 m 374 189 l 410 282 l 729 282 q 728 263 729 272 q 725 249 728 253 l 722 242 q 715 230 721 240 q 710 219 710 219 q 697 210 706 215 q 681 201 689 206 q 665 192 672 196 q 658 189 658 189 l 374 189 z "},"C":{"ha":876,"x_min":176,"x_max":1113,"o":"m 176 338 q 216 172 176 238 q 321 69 256 107 q 468 15 386 31 q 636 0 550 0 l 747 0 q 840 91 800 42 q 913 188 881 140 l 581 188 q 531 204 557 188 q 484 246 506 221 q 449 301 463 271 q 435 357 435 331 q 446 414 435 378 q 469 462 454 438 q 503 506 485 486 q 542 537 522 525 q 581 549 563 549 l 942 549 q 1031 637 990 590 q 1113 736 1072 683 l 539 736 q 400 699 465 736 q 285 606 335 663 q 206 478 235 549 q 176 340 176 407 l 176 338 z "},"D":{"ha":914,"x_min":39,"x_max":1069,"o":"m 985 335 q 867 181 928 244 q 736 78 807 118 q 579 19 665 38 q 385 0 493 0 l 39 0 l 307 736 l 911 736 q 1032 690 994 736 q 1069 574 1069 644 q 1049 456 1069 519 q 985 335 1028 393 m 508 549 l 376 188 l 413 188 q 490 202 446 188 q 579 240 535 217 q 661 294 624 264 q 718 354 699 324 q 736 379 725 365 q 754 411 747 393 q 772 454 763 433 q 781 493 781 475 q 770 533 781 517 q 733 549 760 549 l 508 549 z "},"E":{"ha":868,"x_min":39,"x_max":1099,"o":"m 307 736 l 39 0 l 738 0 q 755 14 739 0 q 792 48 771 28 q 834 90 813 68 q 868 129 856 113 q 875 139 869 131 q 886 157 881 147 q 897 176 892 167 q 904 188 903 185 l 372 188 l 403 271 l 679 271 l 878 458 l 557 458 l 425 331 l 504 549 l 932 549 q 967 571 943 549 q 1017 624 992 593 q 1066 685 1043 654 q 1099 736 1089 717 l 307 736 z "},"F":{"ha":863,"x_min":39,"x_max":1099,"o":"m 307 736 l 39 0 l 304 0 l 403 271 l 679 271 l 878 458 l 557 458 l 425 331 l 504 549 l 932 549 q 967 571 943 549 q 1017 624 992 593 q 1066 685 1043 654 q 1099 736 1089 717 l 307 736 z "},"G":{"ha":889,"x_min":176,"x_max":1113,"o":"m 1017 458 l 843 0 l 636 0 q 468 15 550 0 q 321 69 386 31 q 216 172 256 107 q 176 338 176 238 q 206 475 176 404 q 285 604 235 546 q 400 699 335 663 q 539 736 465 736 l 1113 736 q 1031 637 1072 683 q 942 549 990 590 l 581 549 q 538 537 558 549 q 499 506 517 525 q 468 462 482 486 q 446 414 454 438 q 435 357 435 378 q 448 301 435 331 q 483 246 461 271 q 530 204 504 221 q 581 188 556 188 l 663 188 l 694 278 l 538 278 l 538 279 q 555 306 539 283 q 593 358 571 329 q 640 415 615 386 q 683 458 664 443 l 1017 458 z "},"H":{"ha":908,"x_min":39,"x_max":1138,"o":"m 39 0 l 306 0 l 401 264 l 701 264 l 606 0 l 869 0 l 1138 736 l 874 736 l 769 451 l 558 451 l 417 306 l 574 736 l 307 736 l 39 0 z "},"I":{"ha":856,"x_min":32,"x_max":1092,"o":"m 32 0 l 725 0 q 760 22 736 0 q 810 75 785 44 q 859 137 836 106 q 892 188 882 168 l 629 188 l 761 549 l 925 549 q 960 571 936 549 q 1010 624 985 593 q 1059 685 1036 654 q 1092 736 1082 717 l 396 736 q 349 695 376 724 q 297 636 322 667 q 252 581 271 606 q 232 550 233 556 l 232 549 l 494 549 l 363 188 l 196 188 q 149 147 176 175 q 97 88 122 118 q 52 32 71 57 q 32 1 33 7 l 32 0 z "},"J":{"ha":796,"x_min":32,"x_max":1025,"o":"m 458 0 l 499 0 q 648 24 588 0 q 751 95 708 49 q 826 210 794 142 q 890 368 858 279 l 1025 736 l 761 736 l 611 324 q 585 281 601 304 q 549 236 569 257 q 504 201 529 215 q 453 188 479 188 l 172 188 q 94 96 128 143 q 32 0 61 49 l 458 0 z "},"K":{"ha":969,"x_min":39,"x_max":1210,"o":"m 39 0 l 306 0 l 426 331 l 699 0 l 996 0 l 729 368 l 1210 736 l 913 736 l 453 406 l 574 736 l 307 736 l 39 0 z "},"L":{"ha":778,"x_min":39,"x_max":814,"o":"m 39 0 l 307 736 l 572 736 l 372 188 l 813 188 q 797 164 814 188 q 753 109 779 140 q 697 47 726 78 q 649 0 668 15 l 39 0 z "},"M":{"ha":1161,"x_min":39,"x_max":1390,"o":"m 1122 0 l 1390 736 l 1054 736 l 714 367 l 643 736 l 307 736 l 39 0 l 306 0 l 456 414 l 532 0 l 628 0 l 1006 414 l 856 0 l 1122 0 z "},"N":{"ha":908,"x_min":39,"x_max":1138,"o":"m 39 0 l 306 0 l 456 414 l 533 0 l 869 0 l 1138 736 l 874 736 l 722 322 l 643 736 l 307 736 l 39 0 z "},"O":{"ha":1001,"x_min":157,"x_max":1115,"o":"m 1107 399 q 1115 488 1115 446 q 1028 678 1115 621 q 774 736 942 736 l 590 736 q 445 703 517 736 q 314 615 374 669 q 214 488 254 560 q 163 338 174 415 q 158 300 160 318 q 157 265 157 282 q 184 136 157 188 q 258 55 211 85 q 371 13 306 25 q 513 0 436 0 l 651 0 q 810 32 733 0 q 949 118 888 64 q 1053 244 1011 172 q 1107 399 1094 317 m 424 357 q 431 383 425 368 q 443 414 436 397 q 477 462 456 438 q 524 506 499 486 q 574 537 549 525 q 622 549 600 549 l 735 549 q 791 538 769 549 q 825 510 813 528 q 842 471 838 493 q 846 426 846 449 q 845 402 846 414 q 843 379 844 390 q 840 367 843 381 l 835 353 q 819 322 832 342 q 782 274 807 299 q 729 231 757 250 q 676 199 701 211 q 636 188 650 188 l 544 188 q 497 201 519 188 q 458 238 475 215 q 432 287 442 260 q 422 339 422 314 l 422 347 q 424 357 422 356 z "},"P":{"ha":938,"x_min":39,"x_max":1085,"o":"m 39 0 l 306 0 l 403 267 l 793 267 q 892 286 840 267 q 986 341 943 306 q 1057 425 1029 376 q 1085 532 1085 474 q 1078 595 1085 560 q 1056 662 1072 631 q 1013 715 1040 693 q 944 736 986 736 l 307 736 l 39 0 m 504 547 l 789 547 q 802 535 792 547 q 817 517 813 524 q 817 514 817 517 q 819 510 818 511 l 817 503 q 810 491 815 499 q 800 475 806 483 q 790 460 794 467 q 783 454 785 454 l 561 454 l 428 336 l 504 547 z "},"Q":{"ha":992,"x_min":158,"x_max":1108,"o":"m 1101 399 q 1106 436 1104 418 q 1108 471 1108 454 q 1084 586 1108 536 q 1016 669 1060 636 q 910 719 972 703 q 774 736 849 736 l 590 736 q 445 703 517 736 q 314 616 374 671 q 214 489 254 561 q 163 338 174 417 q 158 275 158 304 q 190 140 158 193 q 276 56 222 88 q 400 13 329 25 q 549 0 471 0 l 674 0 l 697 -39 l 975 -39 l 907 93 q 1036 238 983 156 q 1101 399 1089 319 m 488 353 l 563 188 l 544 188 q 497 201 519 188 q 458 238 475 215 q 432 287 442 260 q 422 339 422 314 l 422 347 q 424 357 422 356 q 431 383 425 368 q 443 414 436 397 q 477 462 456 438 q 524 506 499 486 q 574 537 549 525 q 622 549 600 549 l 718 549 q 780 536 756 549 q 819 503 804 524 q 839 459 833 483 q 844 410 844 435 l 844 393 q 843 379 844 382 q 840 367 843 381 l 835 353 q 819 322 832 342 q 813 310 817 315 q 807 299 810 304 l 779 353 l 488 353 z "},"R":{"ha":963,"x_min":39,"x_max":1079,"o":"m 39 0 l 306 0 l 397 253 l 413 264 l 699 0 l 996 0 l 724 279 q 842 295 779 283 q 958 334 906 307 q 1044 407 1010 361 q 1079 524 1079 453 q 1073 593 1079 556 q 1050 663 1067 631 q 1003 715 1033 694 q 926 736 974 736 l 307 736 l 39 0 m 810 508 q 801 476 810 494 q 771 457 792 457 l 549 457 l 426 333 l 506 550 l 785 550 q 806 542 801 550 q 810 524 810 535 l 810 508 z "},"S":{"ha":917,"x_min":54,"x_max":1144,"o":"m 699 233 l 699 242 q 694 265 699 253 q 679 276 690 276 l 401 276 q 326 297 360 276 q 269 348 293 317 q 232 417 244 379 q 219 490 219 454 q 239 566 219 524 q 289 647 258 608 q 358 710 319 685 q 436 736 397 736 l 1144 736 q 1072 642 1113 689 q 981 547 1031 594 l 522 547 q 496 526 507 547 q 485 493 485 506 l 485 486 q 490 480 485 485 q 499 472 496 475 q 515 462 504 467 q 526 457 525 457 l 790 457 q 867 435 835 457 q 919 381 899 414 q 949 311 939 349 q 958 242 958 274 l 958 233 q 942 156 958 197 q 898 81 925 115 q 835 23 871 46 q 763 0 800 0 l 54 0 q 83 44 61 14 q 128 106 104 75 q 174 162 153 138 q 199 186 194 186 l 671 186 q 695 199 692 186 q 699 225 699 211 l 699 233 z "},"T":{"ha":856,"x_min":232,"x_max":1092,"o":"m 294 0 l 561 0 l 761 549 l 925 549 q 960 571 936 549 q 1010 624 985 593 q 1059 685 1036 654 q 1092 736 1082 717 l 396 736 q 349 695 376 724 q 297 636 322 667 q 252 581 271 606 q 232 550 233 556 l 232 549 l 494 549 l 294 0 z "},"U":{"ha":947,"x_min":150,"x_max":1176,"o":"m 197 428 l 307 736 l 569 736 q 494 516 521 594 q 456 399 468 438 q 440 349 443 360 q 438 335 438 339 q 431 290 431 307 q 454 215 431 242 q 517 188 478 188 l 585 188 q 647 201 618 188 q 697 236 675 215 q 736 281 719 257 q 763 324 753 304 l 913 736 l 1176 736 l 1051 393 q 981 224 1017 297 q 899 101 944 151 q 793 26 853 51 q 650 0 733 0 l 488 0 q 326 11 390 0 q 222 47 261 22 q 167 110 183 71 q 150 204 150 149 q 152 236 150 219 q 157 272 154 253 q 174 344 164 308 q 197 428 185 381 z "},"V":{"ha":1029,"x_min":293,"x_max":1272,"o":"m 601 240 l 535 736 l 293 736 l 379 140 q 389 99 383 124 q 403 53 394 75 q 422 15 411 31 q 449 0 433 0 l 678 0 q 703 10 688 0 q 733 35 718 21 q 760 64 747 50 q 779 86 772 78 l 1272 736 l 986 736 l 601 240 z "},"W":{"ha":1211,"x_min":293,"x_max":1454,"o":"m 996 397 l 972 736 l 758 736 l 522 372 l 522 736 l 293 736 l 293 126 q 294 86 293 108 q 299 45 296 64 q 309 13 303 26 q 325 0 315 0 l 490 0 q 510 10 499 0 q 532 35 521 21 q 553 65 543 50 q 569 88 563 79 l 733 322 q 749 176 743 238 q 761 76 756 115 q 773 19 767 38 q 790 0 779 0 l 954 0 q 973 10 961 0 q 997 35 985 21 q 1019 65 1008 50 q 1035 88 1029 79 l 1454 736 l 1210 736 l 996 397 z "},"X":{"ha":914,"x_min":25,"x_max":1156,"o":"m 321 0 l 521 176 l 593 0 l 889 0 l 740 369 l 1156 736 l 858 736 l 661 563 l 592 736 l 294 736 l 443 369 l 25 0 l 321 0 z "},"Y":{"ha":911,"x_min":293,"x_max":1154,"o":"m 322 0 l 589 0 l 717 350 l 1154 736 l 857 736 l 660 563 l 590 736 l 293 736 l 450 350 l 322 0 z "},"Z":{"ha":856,"x_min":32,"x_max":1092,"o":"m 32 0 l 725 0 q 760 22 736 0 q 810 75 785 44 q 859 137 836 106 q 892 188 882 168 l 518 188 l 1092 736 l 396 736 q 349 695 376 724 q 297 636 322 667 q 252 581 271 606 q 232 550 233 556 l 232 549 l 606 549 l 32 0 z "},"[":{"ha":572,"x_min":11,"x_max":829,"o":"m 340 829 l 11 -78 l 407 -78 q 424 -64 408 -78 q 461 -30 440 -50 q 503 13 482 -10 q 536 51 524 35 q 543 61 538 53 q 555 79 549 69 q 567 98 561 89 q 574 110 572 107 l 344 110 l 538 642 l 663 642 q 698 664 674 642 q 748 717 722 686 q 797 778 774 747 q 829 829 819 810 l 340 829 z "},"\\":{"ha":913,"x_min":293,"x_max":888,"o":"m 592 0 l 888 0 l 590 736 l 293 736 l 592 0 z "},"]":{"ha":572,"x_min":15,"x_max":835,"o":"m 504 -79 l 835 828 l 439 828 q 422 814 438 828 q 385 780 406 800 q 342 738 364 760 q 308 699 321 715 q 301 689 307 697 q 290 671 296 681 q 279 652 285 661 q 272 640 274 643 l 501 640 l 307 108 l 182 108 q 146 86 169 108 q 97 33 122 64 q 48 -29 71 3 q 15 -79 25 -61 l 504 -79 z "},"^":{"ha":1049,"x_min":28,"x_max":1024,"o":"m 699 513 l 324 0 l 28 0 q 31 10 31 11 l 31 14 l 531 653 q 547 675 535 661 q 574 702 560 689 q 603 726 589 715 q 628 736 618 736 l 861 736 q 887 721 875 736 q 907 683 899 706 q 922 637 915 661 q 932 596 928 613 l 1024 0 l 776 0 l 699 513 z "},"_":{"ha":642,"x_min":25,"x_max":685,"o":"m 486 0 l 685 188 l 224 188 l 25 0 l 486 0 z "},"`":{"ha":236,"x_min":278,"x_max":424,"o":"m 406 694 l 417 664 q 420 635 417 650 q 417 601 424 621 q 404 578 411 589 q 386 563 397 568 l 378 557 q 363 554 375 554 q 322 568 343 554 q 293 600 300 582 l 285 632 q 280 649 282 640 q 282 667 278 657 q 333 725 296 701 q 372 736 363 736 q 394 723 388 736 q 406 694 401 710 z "},"a":{"ha":1049,"x_min":28,"x_max":1024,"o":"m 1024 0 l 932 596 q 922 637 928 613 q 907 683 915 661 q 887 721 899 706 q 861 736 875 736 l 628 736 q 603 726 618 736 q 574 702 589 715 q 547 675 560 689 q 531 653 535 661 l 31 14 l 31 10 q 28 0 31 11 l 615 0 q 646 26 625 4 q 688 75 667 49 q 727 125 710 101 q 747 157 744 149 l 776 0 l 1024 0 m 465 200 l 699 513 l 747 186 l 465 186 l 465 200 z "},"b":{"ha":957,"x_min":39,"x_max":1085,"o":"m 307 736 l 39 0 l 676 0 q 799 10 750 0 q 883 42 849 21 q 941 99 918 64 q 985 182 964 133 l 990 197 q 1004 235 997 215 q 1011 274 1011 254 q 997 324 1010 301 q 969 360 985 347 q 1006 385 986 368 q 1044 426 1026 403 q 1073 475 1061 449 q 1085 529 1085 501 l 1085 532 q 1078 608 1085 571 q 1056 674 1072 646 q 1013 719 1040 701 q 944 736 986 736 l 307 736 m 428 336 l 504 547 l 789 547 q 802 535 792 547 q 817 517 813 524 q 817 514 817 517 q 819 510 818 511 l 817 503 q 810 491 815 499 q 800 475 806 483 q 790 460 794 467 q 783 454 785 454 l 561 454 l 428 336 m 374 189 l 410 282 l 729 282 q 728 263 729 272 q 725 249 728 253 l 722 242 q 715 230 721 240 q 710 219 710 219 q 697 210 706 215 q 681 201 689 206 q 665 192 672 196 q 658 189 658 189 l 374 189 z "},"c":{"ha":876,"x_min":176,"x_max":1113,"o":"m 176 338 q 216 172 176 238 q 321 69 256 107 q 468 15 386 31 q 636 0 550 0 l 747 0 q 840 91 800 42 q 913 188 881 140 l 581 188 q 531 204 557 188 q 484 246 506 221 q 449 301 463 271 q 435 357 435 331 q 446 414 435 378 q 469 462 454 438 q 503 506 485 486 q 542 537 522 525 q 581 549 563 549 l 942 549 q 1031 637 990 590 q 1113 736 1072 683 l 539 736 q 400 699 465 736 q 285 606 335 663 q 206 478 235 549 q 176 340 176 407 l 176 338 z "},"d":{"ha":914,"x_min":39,"x_max":1069,"o":"m 982 332 q 862 178 922 242 q 731 76 801 115 q 577 18 661 36 q 385 0 493 0 l 39 0 l 307 736 l 911 736 q 1032 690 994 736 q 1069 574 1069 644 q 1047 455 1069 519 q 982 332 1025 390 m 508 549 l 376 188 l 413 188 q 494 202 450 188 q 582 240 539 217 q 662 294 625 264 q 719 354 699 324 q 738 379 728 365 q 756 411 749 393 q 772 454 764 433 q 781 493 781 475 q 770 533 781 517 q 733 549 760 549 l 508 549 z "},"e":{"ha":868,"x_min":39,"x_max":1099,"o":"m 307 736 l 39 0 l 738 0 q 755 14 739 0 q 792 48 771 28 q 834 90 813 68 q 868 129 856 113 q 875 139 869 131 q 886 157 881 147 q 897 176 892 167 q 904 188 903 185 l 372 188 l 403 271 l 679 271 l 878 458 l 557 458 l 425 331 l 504 549 l 932 549 q 967 571 943 549 q 1017 624 992 593 q 1066 685 1043 654 q 1099 736 1089 717 l 307 736 z "},"f":{"ha":863,"x_min":39,"x_max":1099,"o":"m 307 736 l 39 0 l 304 0 l 403 271 l 679 271 l 878 458 l 557 458 l 425 331 l 504 549 l 932 549 q 967 571 943 549 q 1017 624 992 593 q 1066 685 1043 654 q 1099 736 1089 717 l 307 736 z "},"g":{"ha":889,"x_min":176,"x_max":1113,"o":"m 1017 458 l 843 0 l 636 0 q 468 15 550 0 q 321 69 386 31 q 216 172 256 107 q 176 338 176 238 q 206 475 176 404 q 285 604 235 546 q 400 699 335 663 q 539 736 465 736 l 1113 736 q 1031 637 1072 683 q 942 549 990 590 l 581 549 q 538 537 558 549 q 499 506 517 525 q 468 462 482 486 q 446 414 454 438 q 435 357 435 378 q 448 301 435 331 q 483 246 461 271 q 530 204 504 221 q 581 188 556 188 l 663 188 l 694 278 l 538 278 l 538 279 q 555 306 539 283 q 593 358 571 329 q 640 415 615 386 q 683 458 664 443 l 1017 458 z "},"h":{"ha":908,"x_min":39,"x_max":1138,"o":"m 39 0 l 306 0 l 401 264 l 701 264 l 606 0 l 869 0 l 1138 736 l 874 736 l 769 451 l 558 451 l 417 306 l 574 736 l 307 736 l 39 0 z "},"i":{"ha":350,"x_min":42,"x_max":576,"o":"m 42 0 l 308 0 l 576 736 l 310 736 l 42 0 z "},"j":{"ha":796,"x_min":32,"x_max":1025,"o":"m 458 0 l 499 0 q 648 24 588 0 q 751 95 708 49 q 826 210 794 142 q 890 368 858 279 l 1025 736 l 761 736 l 611 324 q 585 281 601 304 q 549 236 569 257 q 504 201 529 215 q 453 188 479 188 l 172 188 q 94 96 128 143 q 32 0 61 49 l 458 0 z "},"k":{"ha":969,"x_min":39,"x_max":1210,"o":"m 39 0 l 306 0 l 426 331 l 699 0 l 996 0 l 729 368 l 1210 736 l 913 736 l 453 406 l 574 736 l 307 736 l 39 0 z "},"l":{"ha":778,"x_min":39,"x_max":814,"o":"m 39 0 l 307 736 l 572 736 l 372 188 l 813 188 q 797 164 814 188 q 753 109 779 140 q 697 47 726 78 q 649 0 668 15 l 39 0 z "},"m":{"ha":1161,"x_min":39,"x_max":1390,"o":"m 1122 0 l 1390 736 l 1054 736 l 714 367 l 643 736 l 307 736 l 39 0 l 306 0 l 456 414 l 532 0 l 628 0 l 1006 414 l 856 0 l 1122 0 z "},"n":{"ha":908,"x_min":39,"x_max":1138,"o":"m 39 0 l 306 0 l 456 414 l 533 0 l 869 0 l 1138 736 l 874 736 l 722 322 l 643 736 l 307 736 l 39 0 z "},"o":{"ha":1025,"x_min":157,"x_max":1138,"o":"m 1131 399 q 1136 440 1135 421 q 1138 479 1138 460 q 1114 597 1138 547 q 1046 676 1090 646 q 939 722 1001 707 q 797 736 876 736 l 590 736 q 444 702 517 736 q 313 612 372 668 q 213 484 253 556 q 163 338 172 413 q 158 300 160 318 q 157 265 157 282 q 184 136 157 188 q 258 55 211 85 q 371 13 306 25 q 513 0 436 0 l 675 0 q 835 33 758 0 q 974 122 913 67 q 1076 249 1035 176 q 1131 399 1118 321 m 424 357 q 431 383 425 368 q 443 414 436 397 q 477 462 456 438 q 524 506 499 486 q 574 537 549 525 q 622 549 600 549 l 758 549 q 815 538 793 549 q 849 510 836 528 q 865 471 861 493 q 869 426 869 449 q 869 402 869 414 q 867 379 868 390 q 864 367 867 381 l 858 353 q 843 322 856 342 q 805 274 831 299 q 751 231 779 250 q 697 199 722 211 q 660 188 672 188 l 544 188 q 497 201 519 188 q 458 238 475 215 q 432 287 442 260 q 422 339 422 314 l 422 347 q 424 357 422 356 z "},"p":{"ha":938,"x_min":39,"x_max":1085,"o":"m 39 0 l 306 0 l 403 267 l 793 267 q 892 286 840 267 q 986 341 943 306 q 1057 425 1029 376 q 1085 532 1085 474 q 1077 595 1085 560 q 1053 662 1069 631 q 1010 715 1036 693 q 944 736 983 736 l 307 736 l 39 0 m 504 547 l 789 547 q 802 535 792 547 q 817 517 813 524 q 817 514 817 517 q 819 510 818 511 l 817 503 q 810 491 815 499 q 800 475 806 483 q 790 460 794 467 q 783 454 785 454 l 561 454 l 428 336 l 504 547 z "},"q":{"ha":988,"x_min":158,"x_max":1108,"o":"m 1101 399 q 1106 436 1104 418 q 1108 471 1108 454 q 1084 586 1108 536 q 1016 669 1060 636 q 910 719 972 703 q 774 736 849 736 l 590 736 q 445 702 517 736 q 314 613 374 668 q 214 485 254 557 q 163 338 174 413 q 158 275 158 304 q 190 140 158 193 q 276 56 222 88 q 400 13 329 25 q 549 0 471 0 l 674 0 l 697 -39 l 975 -39 l 907 93 q 1036 238 983 156 q 1101 399 1089 319 m 488 353 l 563 188 l 544 188 q 497 201 519 188 q 458 238 475 215 q 432 287 442 260 q 422 339 422 314 l 422 347 q 424 357 422 356 q 431 383 425 368 q 443 414 436 397 q 477 462 456 438 q 524 506 499 486 q 574 537 549 525 q 622 549 600 549 l 718 549 q 780 536 756 549 q 819 503 804 524 q 839 459 833 483 q 844 410 844 435 l 844 393 q 843 379 844 382 q 840 367 843 381 l 835 353 q 819 322 832 342 q 813 310 817 315 q 807 299 810 304 l 779 353 l 488 353 z "},"r":{"ha":971,"x_min":39,"x_max":1079,"o":"m 39 0 l 306 0 l 397 253 l 413 264 l 699 0 l 996 0 l 724 279 q 842 295 779 283 q 958 334 906 307 q 1044 407 1010 361 q 1079 524 1079 453 q 1074 593 1079 556 q 1053 663 1069 631 q 1007 715 1038 694 q 926 736 976 736 l 307 736 l 39 0 m 810 508 q 801 476 810 494 q 771 457 792 457 l 549 457 l 426 333 l 506 550 l 785 550 q 806 542 801 550 q 810 524 810 535 l 810 508 z "},"s":{"ha":917,"x_min":54,"x_max":1144,"o":"m 699 233 l 699 242 q 694 265 699 253 q 679 276 690 276 l 401 276 q 326 297 360 276 q 269 348 293 317 q 232 417 244 379 q 219 490 219 454 q 239 566 219 524 q 289 647 258 608 q 358 710 319 685 q 436 736 397 736 l 1144 736 q 1072 642 1113 689 q 981 547 1031 594 l 522 547 q 496 526 507 547 q 485 493 485 506 l 485 486 q 490 480 485 485 q 499 472 496 475 q 515 462 504 467 q 526 457 525 457 l 790 457 q 868 435 836 457 q 920 381 900 414 q 949 311 940 349 q 958 242 958 274 l 958 233 q 942 156 958 197 q 898 81 925 115 q 835 23 871 46 q 763 0 800 0 l 54 0 q 83 44 61 14 q 128 106 104 75 q 174 162 153 138 q 199 186 194 186 l 671 186 q 695 199 692 186 q 699 225 699 211 l 699 233 z "},"t":{"ha":856,"x_min":232,"x_max":1092,"o":"m 294 0 l 561 0 l 761 549 l 925 549 q 960 571 936 549 q 1010 624 985 593 q 1059 685 1036 654 q 1092 736 1082 717 l 396 736 q 349 695 376 724 q 297 636 322 667 q 252 581 271 606 q 232 550 233 556 l 232 549 l 494 549 l 294 0 z "},"u":{"ha":947,"x_min":147,"x_max":1176,"o":"m 197 428 l 307 736 l 569 736 q 494 516 521 594 q 456 399 468 438 q 440 349 443 360 q 438 335 438 339 q 431 290 431 307 q 458 215 431 242 q 517 188 485 188 l 585 188 q 647 201 618 188 q 697 236 675 215 q 736 281 719 257 q 763 324 753 304 l 913 736 l 1176 736 l 1051 393 q 981 224 1017 297 q 899 101 944 151 q 793 26 853 51 q 650 0 733 0 l 488 0 q 324 12 389 0 q 219 49 258 24 q 164 113 181 74 q 147 208 147 153 q 149 239 147 224 q 153 274 150 254 q 172 345 160 310 q 197 428 185 381 z "},"v":{"ha":1029,"x_min":293,"x_max":1272,"o":"m 601 240 l 535 736 l 293 736 l 379 140 q 389 99 383 124 q 403 53 394 75 q 422 15 411 31 q 449 0 433 0 l 678 0 q 703 10 688 0 q 733 35 718 21 q 760 64 747 50 q 779 86 772 78 l 1272 736 l 986 736 l 601 240 z "},"w":{"ha":1211,"x_min":122,"x_max":1440,"o":"m 140 276 q 127 231 132 253 q 122 185 122 208 q 138 114 122 147 q 188 56 153 81 q 283 15 224 31 q 429 0 342 0 l 1172 0 l 1440 736 l 1176 736 l 976 186 l 808 186 l 1008 736 l 744 736 l 547 193 q 505 200 526 199 q 466 209 483 201 q 438 233 449 217 q 428 288 428 250 q 431 303 428 292 q 436 327 433 314 q 442 353 439 340 q 447 374 446 367 l 569 736 l 308 736 l 140 276 z "},"x":{"ha":914,"x_min":25,"x_max":1156,"o":"m 321 0 l 521 176 l 593 0 l 889 0 l 740 369 l 1156 736 l 858 736 l 661 563 l 592 736 l 294 736 l 443 369 l 25 0 l 321 0 z "},"y":{"ha":911,"x_min":293,"x_max":1154,"o":"m 322 0 l 589 0 l 717 350 l 1154 736 l 857 736 l 660 563 l 590 736 l 293 736 l 450 350 l 322 0 z "},"z":{"ha":856,"x_min":32,"x_max":1092,"o":"m 32 0 l 725 0 q 760 22 736 0 q 810 75 785 44 q 859 137 836 106 q 892 188 882 168 l 518 188 l 1092 736 l 396 736 q 349 695 376 724 q 297 636 322 667 q 252 581 271 606 q 232 550 233 556 l 232 549 l 606 549 l 32 0 z "},"{":{"ha":771,"x_min":124,"x_max":1028,"o":"m 539 829 l 1028 829 q 995 778 1018 810 q 947 717 972 747 q 897 664 921 686 q 861 642 872 642 l 736 642 l 543 110 l 772 110 q 765 98 771 107 q 753 79 760 89 q 742 61 747 69 q 735 51 736 53 q 701 13 722 35 q 660 -30 681 -10 q 623 -64 639 -50 q 606 -78 607 -78 l 210 -78 l 336 271 l 124 271 l 322 458 l 404 458 l 539 829 z "},"|":{"ha":344,"x_min":-32,"x_max":643,"o":"m -32 -196 l 235 -196 l 643 929 l 376 929 l -32 -196 z "},"}":{"ha":771,"x_min":15,"x_max":921,"o":"m 504 -79 l 15 -79 q 48 -29 25 -61 q 97 33 71 3 q 146 86 122 64 q 182 108 169 108 l 307 108 l 501 640 l 272 640 q 279 652 274 643 q 290 671 285 661 q 301 689 296 681 q 308 699 307 697 q 342 738 321 715 q 385 780 364 760 q 422 814 406 800 q 439 828 438 828 l 835 828 l 708 479 l 921 479 l 721 292 l 639 292 l 504 -79 z "},"~":{"ha":574,"x_min":125,"x_max":714,"o":"m 489 364 l 578 458 l 714 458 q 712 455 714 458 q 694 436 710 451 q 646 387 679 421 q 551 290 613 353 q 534 278 544 285 q 517 271 524 271 l 396 271 l 350 365 l 261 271 l 125 271 l 288 439 q 305 451 294 444 q 322 458 315 458 l 444 458 l 489 364 z "},"":{"ha":243,"x_min":0,"x_max":0,"o":""},"€":{"ha":1028,"x_min":108,"x_max":1264,"o":"m 685 228 l 653 228 q 732 188 689 188 l 1064 188 q 992 91 1032 140 q 899 0 951 42 l 788 0 q 644 10 715 0 q 513 47 574 21 q 408 117 453 74 q 344 228 364 161 l 108 228 l 282 339 l 328 339 l 331 381 l 164 381 l 338 492 l 364 492 q 420 585 386 540 q 497 663 454 629 q 588 716 539 696 q 690 736 638 736 l 1264 736 q 1183 637 1224 683 q 1093 549 1142 590 l 732 549 q 682 532 706 549 q 640 492 658 515 l 914 492 l 740 381 l 588 381 l 585 349 q 588 339 585 350 l 858 339 l 685 228 z "},"‚":{"ha":289,"x_min":50,"x_max":300,"o":"m 53 39 l 74 97 q 131 167 90 138 q 215 196 171 196 q 280 167 260 196 q 285 97 300 138 l 264 39 q 238 -5 257 19 q 194 -50 218 -29 q 148 -85 171 -71 q 113 -100 125 -100 l 100 -100 q 69 -84 79 -100 q 54 -47 58 -68 q 51 -1 50 -25 q 53 39 51 22 z "},"ƒ":{"ha":1217,"x_min":169,"x_max":1332,"o":"m 1324 404 l 1321 401 l 1294 365 l 1226 365 l 1246 299 q 1246 289 1247 297 l 1243 282 q 1206 246 1232 254 l 1138 263 l 1092 161 q 1056 142 1079 142 q 1025 151 1039 142 q 992 175 1011 160 l 883 82 l 843 74 l 817 125 l 643 40 l 622 49 l 640 100 l 440 67 l 424 82 l 447 125 l 258 143 l 271 175 l 304 204 l 193 229 q 182 263 169 229 l 244 306 l 178 350 l 185 392 l 272 408 l 250 469 l 275 521 l 361 511 q 440 633 404 633 l 443 633 l 515 599 q 590 667 560 642 q 643 701 619 692 l 690 650 l 856 728 l 876 701 l 858 675 l 864 667 l 1026 701 l 1076 693 l 1050 642 l 1228 642 l 1238 624 q 1190 575 1221 579 l 1325 529 l 1324 525 l 1321 519 q 1249 469 1307 478 q 1324 404 1332 428 m 1296 392 l 1294 408 l 1199 479 l 1283 503 l 1292 503 l 1289 521 l 1133 564 l 1211 615 l 1008 615 l 1046 675 l 838 642 l 850 693 l 839 701 l 672 624 l 633 675 l 517 575 q 494 569 507 569 q 433 607 471 569 l 376 486 l 282 496 l 276 460 l 301 383 l 201 375 l 301 299 l 203 256 l 367 210 l 288 161 l 494 151 l 450 92 l 653 135 l 664 100 l 644 67 l 826 151 l 875 100 l 988 204 l 1072 168 l 1124 289 l 1215 269 l 1221 281 q 1196 383 1229 304 l 1296 392 m 1172 453 l 1115 342 l 1094 346 l 1142 461 l 1172 453 m 1101 294 l 1072 269 l 1063 289 l 1083 303 l 1101 294 m 1047 303 q 994 378 1017 303 l 967 303 l 946 301 l 1000 453 l 1039 356 l 1083 461 l 1103 453 l 1047 303 m 922 303 l 908 310 q 890 346 906 346 q 843 310 872 346 l 815 310 q 862 386 835 349 q 925 460 889 424 q 946 464 931 464 q 963 417 971 464 l 922 303 m 857 461 l 796 313 l 760 301 l 828 454 l 857 461 m 733 297 q 679 369 700 297 l 653 299 l 631 294 l 683 447 l 725 350 l 767 454 l 788 447 l 733 297 m 654 403 q 563 297 599 297 q 550 295 556 296 q 540 294 544 294 q 504 319 501 294 q 603 453 539 421 l 608 453 l 617 453 q 654 403 658 453 m 544 458 l 528 421 q 515 425 521 425 q 472 403 499 425 q 431 342 442 374 q 447 313 418 313 q 460 313 454 313 q 474 315 467 314 l 467 290 q 436 283 439 283 q 410 350 397 283 q 413 361 408 351 l 415 369 q 544 458 440 442 m 432 454 l 371 306 l 336 294 l 407 449 l 432 454 m 925 378 l 928 429 l 883 378 l 925 378 m 619 382 q 621 399 624 396 q 604 419 621 419 q 547 369 582 419 l 543 360 q 553 324 531 324 q 592 336 563 324 q 619 382 613 363 z "},"„":{"ha":529,"x_min":50,"x_max":540,"o":"m 293 39 l 314 97 q 371 167 331 138 q 456 196 411 196 q 520 167 500 196 q 525 97 540 138 l 504 39 q 478 -5 497 19 q 435 -50 458 -29 q 388 -85 411 -71 q 353 -100 365 -100 l 340 -100 q 309 -84 319 -100 q 294 -47 299 -68 q 291 -1 290 -25 q 293 39 292 22 m 53 39 l 74 97 q 131 167 90 138 q 215 196 171 196 q 280 167 260 196 q 285 97 300 138 l 264 39 q 238 -5 257 19 q 194 -50 218 -29 q 148 -85 171 -71 q 113 -100 125 -100 l 100 -100 q 69 -84 79 -100 q 54 -47 58 -68 q 51 -1 50 -25 q 53 39 51 22 z "},"…":{"ha":779,"x_min":58,"x_max":790,"o":"m 564 97 q 569 28 549 57 q 635 0 590 0 q 679 8 657 0 q 720 28 701 15 q 753 59 739 42 q 775 97 768 76 q 770 167 790 138 q 706 196 750 196 q 621 167 661 196 q 564 97 581 138 m 317 97 q 322 28 301 57 q 388 0 343 0 q 432 8 410 0 q 473 28 454 15 q 506 59 492 42 q 528 97 521 76 q 523 167 543 138 q 458 196 503 196 q 374 167 414 196 q 317 97 333 138 m 74 97 q 79 28 58 57 q 144 0 100 0 q 189 8 167 0 q 230 28 211 15 q 263 59 249 42 q 285 97 278 76 q 280 167 300 138 q 215 196 260 196 q 131 167 171 196 q 74 97 90 138 z "},"†":{"ha":600,"x_min":168,"x_max":790,"o":"m 168 0 l 314 401 l 172 401 l 371 589 l 382 589 l 436 736 l 703 736 l 649 589 l 790 589 l 592 401 l 581 401 l 435 0 l 168 0 z "},"‡":{"ha":600,"x_min":78,"x_max":790,"o":"m 168 0 l 219 142 l 78 142 l 276 329 l 288 329 l 314 401 l 172 401 l 371 589 l 382 589 l 436 736 l 703 736 l 649 589 l 790 589 l 592 401 l 581 401 l 554 329 l 696 329 l 497 142 l 486 142 l 435 0 l 168 0 z "},"ˆ":{"ha":418,"x_min":235,"x_max":601,"o":"m 443 656 l 361 574 l 235 574 l 385 719 q 399 730 390 724 q 415 736 408 736 l 501 736 q 522 724 513 736 q 538 704 531 713 l 601 574 l 488 574 l 443 656 z "},"‰":{"ha":1581,"x_min":118,"x_max":1626,"o":"m 118 0 l 356 0 l 1249 736 l 1008 736 l 118 0 m 710 567 q 709 644 718 613 q 678 697 700 676 q 621 727 656 718 q 544 736 586 736 l 453 736 q 389 722 421 736 q 328 683 357 707 q 278 630 300 660 q 246 569 257 600 q 238 536 239 553 q 241 453 231 486 q 276 402 251 421 q 335 376 300 383 q 413 368 371 368 l 482 368 q 553 383 518 368 q 617 421 588 397 q 668 474 646 444 q 701 535 690 504 l 707 550 q 710 567 710 561 m 390 551 l 399 574 q 430 610 410 593 q 468 626 450 626 l 510 626 q 544 613 535 626 q 554 581 554 600 q 553 560 554 564 l 549 550 q 546 543 547 546 q 543 538 544 540 q 528 518 538 528 q 508 501 518 508 q 488 490 497 494 q 472 485 478 485 l 436 485 q 401 508 417 485 q 390 551 386 531 m 1132 199 q 1099 329 1147 290 q 965 368 1050 368 l 874 368 q 810 353 842 368 q 750 315 778 339 q 701 262 722 292 q 668 201 679 232 q 660 168 661 185 q 663 85 653 118 q 698 34 674 53 q 758 8 722 15 q 835 0 793 0 l 904 0 q 975 15 940 0 q 1039 53 1010 29 q 1090 106 1068 76 q 1124 167 1113 136 l 1129 182 q 1131 193 1131 189 q 1132 199 1132 197 m 813 183 l 821 206 q 852 242 832 225 q 890 258 872 258 l 932 258 q 967 245 958 258 q 975 213 975 232 q 974 192 975 196 l 971 182 q 964 169 969 176 q 930 133 953 150 q 894 117 907 117 l 858 117 q 824 140 839 117 q 813 183 808 163 m 1611 199 q 1578 329 1626 290 q 1444 368 1529 368 l 1353 368 q 1289 353 1321 368 q 1229 315 1257 339 q 1180 262 1201 292 q 1147 201 1158 232 q 1139 168 1140 185 q 1142 85 1132 118 q 1177 34 1153 53 q 1237 8 1201 15 q 1314 0 1272 0 l 1383 0 q 1454 15 1419 0 q 1518 53 1489 29 q 1569 106 1547 76 q 1603 167 1592 136 l 1608 182 q 1610 193 1610 189 q 1611 199 1611 197 m 1292 183 l 1300 206 q 1331 242 1311 225 q 1369 258 1351 258 l 1411 258 q 1446 245 1438 258 q 1454 213 1454 232 q 1453 192 1454 196 l 1450 182 q 1443 169 1449 176 q 1409 133 1432 150 q 1374 117 1386 117 l 1338 117 q 1303 140 1318 117 q 1292 183 1288 163 z "},"Š":{"ha":917,"x_min":54,"x_max":1144,"o":"m 699 233 l 699 242 q 694 265 699 253 q 679 276 690 276 l 401 276 q 326 297 360 276 q 269 348 293 317 q 232 417 244 379 q 219 490 219 454 q 239 566 219 524 q 289 647 258 608 q 358 710 319 685 q 436 736 397 736 l 1144 736 q 1072 642 1113 689 q 981 547 1031 594 l 522 547 q 496 526 507 547 q 485 493 485 506 l 485 486 q 490 480 485 485 q 499 472 496 475 q 515 462 504 467 q 526 457 525 457 l 790 457 q 862 435 831 457 q 915 380 893 413 q 947 309 936 347 q 958 239 958 271 l 958 233 q 942 156 958 197 q 898 81 925 115 q 835 23 871 46 q 763 0 800 0 l 54 0 q 83 44 61 14 q 128 106 104 75 q 174 162 153 138 q 199 186 194 186 l 671 186 q 695 199 692 186 q 699 225 699 211 l 699 233 m 761 901 l 843 983 l 969 983 l 819 838 q 805 827 814 833 q 789 821 796 821 l 703 821 q 683 833 692 821 q 667 853 674 844 l 603 983 l 717 983 l 761 901 z "},"‹":{"ha":240,"x_min":153,"x_max":408,"o":"m 257 379 l 321 328 l 275 201 l 164 297 q 157 308 161 301 q 156 322 153 315 l 188 408 q 208 433 192 419 q 236 456 225 447 l 408 568 l 367 454 l 257 379 z "},"Œ":{"ha":1465,"x_min":176,"x_max":1696,"o":"m 176 338 q 206 475 176 404 q 285 604 235 546 q 400 699 335 663 q 539 736 465 736 l 1696 736 q 1663 685 1686 717 q 1615 624 1640 654 q 1565 571 1589 593 q 1529 549 1540 549 l 1101 549 l 1022 331 l 1154 458 l 1475 458 l 1276 271 l 1000 271 l 969 188 l 1501 188 q 1494 176 1500 185 q 1483 157 1489 167 q 1472 139 1478 147 q 1465 129 1467 131 q 1431 90 1453 113 q 1389 48 1410 68 q 1352 14 1368 28 q 1335 0 1336 0 l 636 0 q 468 15 550 0 q 321 69 386 31 q 216 172 256 107 q 176 338 176 238 m 836 549 l 581 549 q 538 537 558 549 q 499 506 517 525 q 468 462 482 486 q 446 414 454 438 q 435 357 435 378 q 449 301 435 331 q 484 246 463 271 q 531 204 506 221 q 581 188 557 188 l 704 188 l 836 549 z "},"Ž":{"ha":856,"x_min":32,"x_max":1092,"o":"m 725 0 l 32 0 l 606 549 l 232 549 l 232 550 q 252 581 233 556 q 297 636 271 606 q 349 695 322 667 q 396 736 376 724 l 1092 736 l 518 188 l 892 188 q 859 137 882 168 q 810 75 836 106 q 760 22 785 44 q 725 0 736 0 m 761 901 l 843 983 l 969 983 l 819 838 q 805 827 814 833 q 789 821 796 821 l 703 821 q 683 833 692 821 q 667 853 674 844 l 603 983 l 717 983 l 761 901 z "},"‘":{"ha":251,"x_min":228,"x_max":438,"o":"m 433 611 l 415 560 q 367 497 401 524 q 296 471 332 471 q 243 497 258 471 q 242 560 228 524 l 260 611 q 284 651 267 629 q 321 691 301 672 q 359 723 340 710 q 389 736 378 736 l 400 736 q 424 722 417 736 q 435 688 432 708 q 436 647 438 668 q 433 611 435 625 z "},"’":{"ha":251,"x_min":251,"x_max":463,"o":"m 257 597 l 275 649 q 323 711 289 685 q 393 738 357 738 q 447 711 431 738 q 449 649 463 685 l 431 597 q 406 558 424 579 q 369 517 389 536 q 331 485 350 499 q 301 472 311 472 l 290 472 q 265 486 274 472 q 254 520 257 500 q 253 561 251 540 q 257 597 254 582 z "},"“":{"ha":453,"x_min":229,"x_max":640,"o":"m 435 611 l 417 560 q 368 497 403 524 q 297 471 333 471 q 244 497 260 471 q 243 560 229 524 l 261 611 q 285 651 268 629 q 322 691 303 672 q 360 723 342 710 q 390 736 379 736 l 401 736 q 426 722 418 736 q 436 688 433 708 q 438 647 439 668 q 435 611 436 625 m 636 611 l 618 560 q 569 497 604 524 q 499 471 535 471 q 446 497 461 471 q 444 560 431 524 l 463 611 q 487 651 469 629 q 524 691 504 672 q 562 723 543 710 q 592 736 581 736 l 603 736 q 627 722 619 736 q 638 688 635 708 q 639 647 640 668 q 636 611 638 625 z "},"”":{"ha":453,"x_min":251,"x_max":664,"o":"m 458 597 l 476 649 q 524 711 490 685 q 594 738 558 738 q 648 711 632 738 q 650 649 664 685 l 632 597 q 608 558 625 579 q 571 517 590 536 q 532 485 551 499 q 503 472 513 472 l 492 472 q 467 486 475 472 q 456 520 458 500 q 454 561 453 540 q 458 597 456 582 m 257 597 l 275 649 q 323 711 289 685 q 393 738 357 738 q 447 711 431 738 q 449 649 463 685 l 431 597 q 406 558 424 579 q 369 517 389 536 q 331 485 350 499 q 301 472 311 472 l 290 472 q 265 486 274 472 q 254 520 257 500 q 253 561 251 540 q 257 597 254 582 z "},"•":{"ha":494,"x_min":168,"x_max":594,"o":"m 172 357 q 179 383 174 368 q 192 414 185 397 q 226 462 204 438 q 272 506 247 486 q 323 537 297 525 q 371 549 349 549 l 483 549 q 537 539 515 549 q 571 513 558 529 q 589 477 583 497 q 594 435 594 457 q 594 406 594 419 q 592 379 593 393 q 589 367 592 381 l 583 353 q 568 322 581 342 q 531 274 556 299 q 480 231 507 250 q 427 199 453 211 q 385 188 401 188 l 293 188 q 242 204 265 188 q 201 246 218 221 q 176 301 185 271 q 172 357 168 331 z "},"–":{"ha":501,"x_min":124,"x_max":643,"o":"m 444 271 l 643 458 l 322 458 l 124 271 l 444 271 z "},"—":{"ha":600,"x_min":124,"x_max":742,"o":"m 543 271 l 742 458 l 322 458 l 124 271 l 543 271 z "},"˜":{"ha":540,"x_min":235,"x_max":782,"o":"m 574 654 l 656 736 l 782 736 q 779 733 782 736 q 763 717 776 731 q 719 674 749 703 q 633 590 689 644 q 617 580 626 586 q 601 574 608 574 l 488 574 l 443 656 l 361 574 l 235 574 l 385 719 q 399 730 390 724 q 415 736 408 736 l 529 736 l 574 654 z "},"š":{"ha":917,"x_min":54,"x_max":1144,"o":"m 699 233 l 699 242 q 694 265 699 253 q 679 276 690 276 l 401 276 q 326 297 360 276 q 269 348 293 317 q 232 417 244 379 q 219 490 219 454 q 239 566 219 524 q 289 647 258 608 q 358 710 319 685 q 436 736 397 736 l 1144 736 q 1072 642 1113 689 q 981 547 1031 594 l 522 547 q 496 526 507 547 q 485 493 485 506 l 485 486 q 490 480 485 485 q 499 472 496 475 q 515 462 504 467 q 526 457 525 457 l 790 457 q 862 435 831 457 q 915 380 893 413 q 947 309 936 347 q 958 239 958 271 l 958 233 q 942 156 958 197 q 898 81 925 115 q 835 23 871 46 q 763 0 800 0 l 54 0 q 83 44 61 14 q 128 106 104 75 q 174 162 153 138 q 199 186 194 186 l 671 186 q 695 199 692 186 q 699 225 699 211 l 699 233 m 761 901 l 843 983 l 969 983 l 819 838 q 805 827 814 833 q 789 821 796 821 l 703 821 q 683 833 692 821 q 667 853 674 844 l 603 983 l 717 983 l 761 901 z "},"›":{"ha":240,"x_min":110,"x_max":364,"o":"m 261 388 l 197 439 l 243 565 l 244 565 l 244 567 l 354 469 q 360 458 357 465 q 361 444 364 451 l 331 358 q 310 333 326 347 q 282 311 293 319 l 110 199 l 151 313 l 261 388 z "},"œ":{"ha":1465,"x_min":176,"x_max":1696,"o":"m 176 338 l 176 340 q 206 478 176 407 q 285 606 235 549 q 400 699 335 663 q 539 736 465 736 l 1696 736 q 1663 685 1686 717 q 1615 624 1640 654 q 1565 571 1589 593 q 1529 549 1540 549 l 1101 549 l 1022 331 l 1154 458 l 1475 458 l 1276 271 l 1000 271 l 969 188 l 1501 188 q 1494 176 1500 185 q 1483 157 1489 167 q 1472 139 1478 147 q 1465 129 1467 131 q 1431 90 1453 113 q 1389 48 1410 68 q 1352 14 1368 28 q 1335 0 1336 0 l 636 0 q 468 15 550 0 q 321 69 386 31 q 216 172 256 107 q 176 338 176 238 m 836 549 l 581 549 q 538 537 558 549 q 499 506 517 525 q 468 462 482 486 q 446 414 454 438 q 435 357 435 378 q 449 301 435 331 q 484 246 463 271 q 531 204 506 221 q 581 188 557 188 l 704 188 l 836 549 z "},"ž":{"ha":856,"x_min":32,"x_max":1092,"o":"m 725 0 l 32 0 l 606 549 l 232 549 l 232 550 q 252 581 233 556 q 297 636 271 606 q 349 695 322 667 q 396 736 376 724 l 1092 736 l 518 188 l 892 188 q 859 137 882 168 q 810 75 836 106 q 760 22 785 44 q 725 0 736 0 m 761 901 l 843 983 l 969 983 l 819 838 q 805 827 814 833 q 789 821 796 821 l 703 821 q 683 833 692 821 q 667 853 674 844 l 603 983 l 717 983 l 761 901 z "},"Ÿ":{"ha":911,"x_min":293,"x_max":1154,"o":"m 450 350 l 293 736 l 590 736 l 660 563 l 857 736 l 1154 736 l 717 350 l 589 0 l 322 0 l 450 350 m 575 906 q 622 964 588 940 q 693 988 656 988 q 747 964 731 988 q 751 906 764 940 q 705 847 739 871 q 633 824 671 824 q 579 847 596 824 q 575 906 563 871 m 1003 906 q 957 847 990 871 q 886 824 924 824 q 831 847 849 824 q 826 906 814 871 q 874 964 839 940 q 946 988 908 988 q 999 964 983 988 q 1003 906 1015 940 z "},"¡":{"ha":344,"x_min":39,"x_max":528,"o":"m 488 499 l 221 499 l 39 0 l 306 0 l 488 499 m 513 639 q 508 708 528 679 q 443 736 488 736 q 358 708 399 736 q 301 639 317 679 q 307 569 286 599 q 372 540 328 540 q 417 548 394 540 q 458 569 439 556 q 491 601 476 583 q 513 639 506 618 z "},"¢":{"ha":876,"x_min":176,"x_max":1113,"o":"m 371 -197 l 546 -197 l 618 0 l 747 0 q 840 91 800 42 q 913 188 881 140 l 686 188 l 818 549 l 942 549 q 1031 637 990 590 q 1113 736 1072 683 l 886 736 l 956 928 l 781 928 l 711 736 l 539 736 q 400 699 465 736 q 285 606 335 663 q 206 478 235 549 q 176 340 176 407 l 176 338 q 197 211 176 265 q 255 119 218 157 q 342 56 292 81 q 450 19 392 32 l 371 -197 m 643 549 l 519 211 q 460 277 486 238 q 435 354 435 317 l 435 357 q 446 414 435 378 q 468 462 454 438 q 499 506 482 486 q 538 537 517 525 q 581 549 558 549 l 643 549 z "},"£":{"ha":936,"x_min":25,"x_max":915,"o":"m 911 0 q 915 100 915 51 q 906 189 915 154 l 633 189 q 621 201 631 189 q 607 219 611 213 q 606 222 607 219 q 604 226 606 225 l 607 233 q 615 247 610 238 q 628 267 621 257 l 901 267 l 824 454 l 703 454 q 700 460 700 454 q 701 483 700 471 q 706 503 703 496 l 708 510 q 712 514 710 511 q 714 517 714 517 q 727 526 719 521 q 742 535 735 531 q 756 544 750 540 q 764 547 763 547 l 846 547 q 853 644 853 596 q 844 736 854 692 l 747 736 q 669 715 711 736 q 588 662 628 693 q 513 595 547 631 q 457 532 478 560 q 438 501 446 517 q 424 471 431 486 q 419 458 421 464 q 417 447 418 453 l 318 447 l 119 260 l 335 260 q 324 239 328 249 q 318 219 321 229 l 306 188 l 224 188 l 25 0 l 911 0 z "},"¤":{"ha":914,"x_min":25,"x_max":1156,"o":"m 906 388 q 906 451 911 424 q 889 501 901 479 l 1156 736 l 858 736 l 690 588 l 675 588 l 651 588 l 592 736 l 294 736 l 383 518 q 312 438 340 482 q 279 351 283 393 q 278 288 274 315 q 296 239 283 260 l 294 238 l 25 0 l 321 0 l 493 151 l 521 151 l 532 151 l 593 0 l 889 0 l 799 222 q 871 301 843 257 q 906 388 899 346 m 451 363 q 456 378 451 369 q 464 396 460 386 q 515 451 482 425 q 579 476 549 476 l 654 476 q 699 467 683 476 q 723 442 715 457 q 731 410 731 428 q 731 376 732 392 q 725 360 731 371 q 717 342 722 350 q 693 314 708 328 q 660 288 678 300 q 626 269 643 276 q 599 263 610 263 l 538 263 q 502 272 518 263 q 474 297 486 282 q 456 329 463 311 q 451 363 450 347 z "},"¥":{"ha":911,"x_min":132,"x_max":1154,"o":"m 322 0 l 354 88 l 132 88 l 306 199 l 394 199 l 410 240 l 188 240 l 361 351 l 449 351 l 293 736 l 590 736 l 660 563 l 857 736 l 1154 736 l 718 351 l 938 351 l 764 240 l 676 240 l 661 199 l 882 199 l 708 88 l 621 88 l 589 0 l 322 0 z "},"¦":{"ha":344,"x_min":-32,"x_max":643,"o":"m -32 -196 l 235 -196 l 643 929 l 376 929 l -32 -196 z "},"§":{"ha":914,"x_min":25,"x_max":1156,"o":"m 906 388 q 906 451 911 424 q 889 501 901 479 l 1156 736 l 858 736 l 690 588 l 651 588 q 513 574 579 588 q 383 518 446 560 q 325 457 350 490 q 288 390 300 424 q 282 370 285 379 q 279 351 279 361 q 278 288 274 315 q 296 239 283 260 l 25 0 l 321 0 l 493 151 l 532 151 q 681 172 617 151 q 799 222 746 193 q 859 283 835 250 q 894 349 883 315 q 901 368 899 358 q 906 388 903 378 m 451 363 q 454 372 451 364 l 464 396 q 515 451 482 425 q 579 476 549 476 l 654 476 q 699 467 683 476 q 723 442 715 457 q 731 410 731 428 q 731 376 732 392 q 725 360 731 371 q 717 342 722 350 q 693 314 708 328 q 660 288 678 300 q 626 269 643 276 q 599 263 610 263 l 538 263 q 502 272 518 263 q 474 297 486 282 q 456 329 463 311 q 451 363 450 347 z "},"¨":{"ha":506,"x_min":264,"x_max":717,"o":"m 276 654 q 323 713 289 689 q 394 736 357 736 q 449 713 432 736 q 453 654 465 689 q 406 596 440 619 q 335 572 372 572 q 281 596 297 572 q 276 654 264 619 m 704 654 q 658 596 692 619 q 588 572 625 572 q 533 596 550 572 q 528 654 515 619 q 575 713 540 689 q 647 736 610 736 q 701 713 685 736 q 704 654 717 689 z "},"©":{"ha":386,"x_min":268,"x_max":607,"o":"m 493 825 q 411 806 458 825 q 332 749 364 785 q 303 710 315 729 q 283 671 290 692 q 276 596 268 631 q 290 563 281 576 q 313 538 299 549 q 382 518 344 518 q 465 538 400 518 q 508 563 489 549 q 543 596 526 576 q 592 671 578 631 q 599 749 607 717 q 561 806 592 785 q 493 825 529 825 m 485 800 q 540 783 519 800 q 572 736 568 764 q 565 671 576 704 q 525 608 551 636 q 461 561 494 575 q 392 544 424 544 q 333 561 358 544 q 303 608 308 582 q 310 671 299 638 q 326 704 317 688 q 350 736 335 721 q 416 784 379 768 q 485 800 453 800 m 479 647 q 413 608 454 608 q 385 671 361 608 q 417 719 396 703 q 463 736 438 736 q 497 704 493 736 l 522 710 q 471 758 525 758 q 403 736 433 758 q 357 671 372 714 q 356 606 342 629 q 406 583 369 583 q 459 599 433 583 q 501 640 485 614 l 479 647 z "},"«":{"ha":428,"x_min":153,"x_max":596,"o":"m 444 379 l 508 328 l 463 201 l 351 297 q 344 308 349 301 q 343 322 340 315 l 375 408 q 396 433 379 419 q 424 456 413 447 l 596 568 l 554 454 l 444 379 m 257 378 l 321 326 l 274 200 l 164 296 q 157 307 161 300 q 156 321 153 314 l 188 407 q 208 432 192 418 q 236 454 225 446 l 407 567 l 367 453 l 257 378 z "},"¬":{"ha":657,"x_min":124,"x_max":785,"o":"m 481 136 l 529 271 l 124 271 l 322 458 l 785 458 l 668 136 l 481 136 z "},"­":{"ha":442,"x_min":124,"x_max":583,"o":"m 385 271 l 583 458 l 322 458 l 124 271 l 385 271 z "},"®":{"ha":386,"x_min":269,"x_max":607,"o":"m 494 826 q 411 807 461 826 q 333 750 365 786 q 303 712 317 731 q 283 672 290 693 q 278 597 269 633 q 290 564 282 578 q 313 539 299 550 q 382 519 344 519 q 465 539 400 519 q 508 564 489 550 q 544 597 528 578 q 592 672 576 633 q 600 750 607 714 q 561 807 593 786 q 494 826 533 826 m 485 801 q 542 785 518 801 q 572 738 568 767 q 565 672 578 710 q 526 610 556 643 q 461 563 493 576 q 392 546 424 546 q 333 563 358 546 q 304 610 308 583 q 310 672 299 635 q 350 738 322 706 q 417 785 381 769 q 485 801 453 801 m 340 589 l 367 589 l 393 658 l 408 658 q 426 653 422 658 q 442 614 436 646 l 446 589 l 479 589 l 471 621 q 462 648 465 639 q 447 663 458 657 q 487 677 469 664 q 511 708 504 690 q 511 733 515 722 q 497 749 511 743 q 457 754 492 754 l 401 754 l 340 589 m 400 681 l 418 731 l 447 731 q 475 729 474 731 q 482 706 488 724 q 467 688 478 694 q 432 681 456 681 l 400 681 z "},"¯":{"ha":642,"x_min":225,"x_max":885,"o":"m 686 549 l 885 736 l 424 736 l 225 549 l 686 549 z "},"°":{"ha":254,"x_min":264,"x_max":465,"o":"m 276 654 q 323 713 289 689 q 394 736 357 736 q 449 713 432 736 q 453 654 465 689 q 406 596 440 619 q 335 572 372 572 q 281 596 297 572 q 276 654 264 619 z "},"±":{"ha":640,"x_min":24,"x_max":814,"o":"m 313 228 l 361 363 l 156 363 l 354 550 l 429 550 l 482 693 l 669 693 l 617 550 l 814 550 l 615 363 l 549 363 l 500 228 l 313 228 m 24 0 l 222 188 l 682 188 l 483 0 l 24 0 z "},"´":{"ha":236,"x_min":251,"x_max":454,"o":"m 336 694 l 303 664 q 278 635 292 650 q 258 601 265 621 q 252 578 253 589 q 258 563 251 568 l 264 557 q 276 554 267 554 q 300 558 286 554 q 328 569 314 563 q 356 583 343 575 q 379 600 369 592 l 413 632 q 428 649 421 640 q 440 667 436 657 q 431 725 454 701 q 400 736 415 736 q 368 723 385 736 q 336 694 351 710 z "},"µ":{"ha":1163,"x_min":175,"x_max":1269,"o":"m 1269 392 l 1268 408 l 1172 479 l 1257 503 l 1265 503 l 1263 521 l 1107 564 l 1185 615 l 982 615 l 1019 675 l 811 642 l 824 693 l 813 701 l 646 624 l 607 675 l 490 575 q 468 569 481 569 q 407 607 444 569 l 350 486 l 256 496 l 250 460 l 275 383 l 175 375 l 275 299 l 176 256 l 340 210 l 261 161 l 468 151 l 424 92 l 626 135 l 638 100 l 618 67 l 800 151 l 849 100 l 961 204 l 1046 168 l 1097 289 l 1189 269 l 1194 281 q 1169 383 1203 304 l 1269 392 m 1146 453 l 1089 342 l 1068 346 l 1115 461 l 1146 453 m 1075 294 l 1046 269 l 1036 289 l 1057 303 l 1075 294 m 1021 303 q 968 378 990 303 l 940 303 l 919 301 l 974 453 l 1013 356 l 1057 461 l 1076 453 l 1021 303 m 896 303 l 882 310 q 864 346 879 346 q 817 310 846 346 l 789 310 q 835 386 808 349 q 899 460 863 424 q 919 464 904 464 q 936 417 944 464 l 896 303 m 831 461 l 769 313 l 733 301 l 801 454 l 831 461 m 707 297 q 653 369 674 297 l 626 299 l 604 294 l 657 447 l 699 350 l 740 454 l 761 447 l 707 297 m 628 403 q 536 297 572 297 q 524 295 529 296 q 514 294 518 294 q 478 319 475 294 q 576 453 513 421 l 582 453 l 590 453 q 628 403 632 453 m 518 458 l 501 421 q 489 425 494 425 q 446 403 472 425 q 404 342 415 374 q 421 313 392 313 q 434 313 428 313 q 447 315 440 314 l 440 290 q 410 283 413 283 q 383 350 371 283 q 386 361 382 351 l 389 369 q 518 458 414 442 m 406 454 l 344 306 l 310 294 l 381 449 l 406 454 m 899 378 l 901 429 l 857 378 l 899 378 m 593 382 q 594 399 597 396 q 578 419 594 419 q 521 369 556 419 l 517 360 q 526 324 504 324 q 565 336 536 324 q 593 382 586 363 z "},"¶":{"ha":856,"x_min":146,"x_max":982,"o":"m 982 453 l 925 342 l 904 346 l 951 461 l 982 453 m 911 294 l 882 269 l 872 289 l 893 303 l 911 294 m 857 303 q 804 378 826 303 l 776 303 l 756 301 l 810 453 l 849 356 l 893 461 l 913 453 l 857 303 m 732 303 l 718 310 q 700 346 715 346 q 653 310 682 346 l 625 310 q 672 386 644 349 q 735 460 699 424 q 756 464 740 464 q 772 417 781 464 l 732 303 m 667 461 l 606 313 l 569 301 l 638 454 l 667 461 m 543 297 q 489 369 510 297 l 463 299 l 440 294 l 493 447 l 535 350 l 576 454 l 597 447 l 543 297 m 464 403 q 372 297 408 297 q 360 295 365 296 q 350 294 354 294 q 314 319 311 294 q 413 453 349 421 l 418 453 l 426 453 q 464 403 468 453 m 354 458 l 338 421 q 325 425 331 425 q 282 403 308 425 q 240 342 251 374 q 257 313 228 313 q 270 313 264 313 q 283 315 276 314 l 276 290 q 246 283 249 283 q 219 350 207 283 q 222 361 218 351 l 225 369 q 354 458 250 442 m 242 454 l 181 306 l 146 294 l 217 449 l 242 454 m 735 378 l 738 429 l 693 378 l 735 378 m 429 382 q 431 399 433 396 q 414 419 431 419 q 357 369 392 419 l 353 360 q 363 324 340 324 q 401 336 372 324 q 429 382 422 363 z "},"·":{"ha":254,"x_min":176,"x_max":364,"o":"m 182 392 q 228 450 194 426 q 299 474 261 474 q 347 458 329 474 q 364 418 364 442 q 358 392 364 403 q 311 333 346 357 q 239 310 276 310 q 193 325 210 310 q 176 364 176 340 q 182 392 176 382 z "},"¸":{"ha":244,"x_min":-215,"x_max":208,"o":"m -215 -161 l -46 -33 l 28 -33 l 43 8 l 208 8 l 147 -161 l -215 -161 z "},"»":{"ha":428,"x_min":111,"x_max":554,"o":"m 263 388 l 199 439 l 244 565 l 356 469 q 362 458 358 465 q 363 444 365 451 l 332 358 q 311 333 328 347 q 283 311 294 319 l 111 199 l 153 313 l 263 388 m 450 389 l 386 440 l 432 567 l 543 471 q 550 460 546 467 q 551 446 554 453 l 519 360 q 499 335 515 349 q 471 313 482 321 l 299 200 l 340 314 l 450 389 z "},"¿":{"ha":908,"x_min":85,"x_max":1054,"o":"m 983 500 l 768 500 l 768 499 q 744 480 765 494 q 679 465 722 465 l 472 465 q 382 444 431 465 q 286 391 333 424 q 197 319 239 358 q 131 246 156 281 q 97 178 108 215 q 85 106 85 142 q 104 31 85 61 q 168 0 124 0 l 782 0 q 822 41 800 18 q 867 89 844 64 q 910 140 889 114 q 944 189 931 165 l 392 189 q 379 204 379 189 q 383 225 379 214 q 394 243 388 236 l 400 250 q 408 256 400 251 q 422 264 417 261 q 449 277 432 269 q 467 285 465 285 l 660 285 q 743 306 696 285 q 836 360 790 328 q 922 431 882 393 q 983 500 961 468 m 1047 639 q 1054 672 1054 663 q 1034 718 1054 700 q 978 736 1014 736 q 892 708 933 736 q 836 639 851 679 q 831 607 831 628 q 851 559 831 578 q 907 540 871 540 q 951 548 929 540 q 992 569 974 556 q 1026 601 1011 583 q 1047 639 1040 618 z "},"À":{"ha":1049,"x_min":28,"x_max":1024,"o":"m 465 186 l 747 186 l 699 513 l 465 200 l 465 186 m 776 0 l 747 157 q 727 125 744 149 q 688 75 710 101 q 646 26 667 49 q 615 0 625 4 l 28 0 q 31 10 31 11 l 31 14 l 531 653 q 547 675 535 661 q 574 702 560 689 q 603 726 589 715 q 628 736 618 736 l 861 736 q 887 721 875 736 q 907 683 899 706 q 922 637 915 661 q 932 596 928 613 l 1024 0 l 776 0 m 835 924 q 838 895 835 910 q 835 861 842 881 q 822 838 829 849 q 804 822 815 828 l 796 817 q 781 814 793 814 q 740 828 761 814 q 711 860 718 842 l 703 892 q 698 908 700 900 q 700 926 696 917 q 751 985 714 961 q 790 996 781 996 q 813 983 806 996 q 824 954 821 969 l 835 924 z "},"Á":{"ha":1049,"x_min":28,"x_max":1024,"o":"m 465 186 l 747 186 l 699 513 l 465 200 l 465 186 m 776 0 l 747 157 q 727 125 744 149 q 688 75 710 101 q 646 26 667 49 q 615 0 625 4 l 28 0 q 31 10 31 11 l 31 14 l 531 653 q 547 675 535 661 q 574 702 560 689 q 603 726 589 715 q 628 736 618 736 l 861 736 q 887 721 875 736 q 907 683 899 706 q 922 637 915 661 q 932 596 928 613 l 1024 0 l 776 0 m 743 925 l 776 956 q 808 984 792 971 q 840 997 825 997 q 871 986 856 997 q 881 928 894 963 q 869 910 878 918 q 853 893 861 901 l 821 861 q 769 829 801 843 q 718 815 738 815 q 704 818 707 815 l 700 824 q 694 840 693 829 q 699 863 694 850 q 719 897 706 882 q 743 925 733 911 z "},"Â":{"ha":1049,"x_min":28,"x_max":1024,"o":"m 465 186 l 747 186 l 699 513 l 465 200 l 465 186 m 776 0 l 747 157 q 727 125 744 149 q 688 75 710 101 q 646 26 667 49 q 615 0 625 4 l 28 0 q 31 10 31 11 l 31 14 l 531 653 q 547 675 535 661 q 574 702 560 689 q 603 726 589 715 q 628 736 618 736 l 861 736 q 887 721 875 736 q 907 683 899 706 q 922 637 915 661 q 932 596 928 613 l 1024 0 l 776 0 m 788 906 l 708 824 q 582 824 581 822 l 731 969 q 745 980 738 974 q 760 986 753 986 l 846 986 q 867 974 857 986 q 883 954 878 963 l 949 824 l 835 824 l 788 906 z "},"Ã":{"ha":1049,"x_min":28,"x_max":1086,"o":"m 465 186 l 747 186 l 699 513 l 465 200 l 465 186 m 776 0 l 747 157 q 727 125 744 149 q 688 75 710 101 q 646 26 667 49 q 615 0 625 4 l 28 0 q 31 10 31 11 l 31 14 l 531 653 q 547 675 535 661 q 574 702 560 689 q 603 726 589 715 q 628 736 618 736 l 861 736 q 887 721 875 736 q 907 683 899 706 q 922 637 915 661 q 932 596 928 613 l 1024 0 l 776 0 m 879 904 l 960 986 l 1086 986 q 1084 983 1086 986 q 1068 967 1082 981 q 1024 924 1054 953 q 938 840 993 894 q 923 830 932 836 q 907 824 914 824 l 793 824 l 747 906 l 667 824 l 540 824 l 689 969 q 704 980 696 974 q 719 986 713 986 l 833 986 l 879 904 z "},"Ä":{"ha":1049,"x_min":28,"x_max":1024,"o":"m 465 186 l 747 186 l 699 513 l 465 200 l 465 186 m 776 0 l 747 157 q 727 125 744 149 q 688 75 710 101 q 646 26 667 49 q 615 0 625 4 l 28 0 q 31 10 31 11 l 31 14 l 531 653 q 547 675 535 661 q 574 702 560 689 q 603 726 589 715 q 628 736 618 736 l 861 736 q 887 721 875 736 q 907 683 899 706 q 922 637 915 661 q 932 596 928 613 l 1024 0 l 776 0 m 582 907 q 628 965 594 942 q 699 989 661 989 q 753 965 736 989 q 758 907 771 942 q 711 849 746 872 q 639 825 676 825 q 585 849 601 825 q 582 907 569 872 m 1010 907 q 963 849 997 872 q 892 825 929 825 q 838 849 854 825 q 833 907 821 872 q 880 965 846 942 q 951 989 914 989 q 1006 965 989 989 q 1010 907 1022 942 z "},"Å":{"ha":1049,"x_min":28,"x_max":1024,"o":"m 465 186 l 747 186 l 699 513 l 465 200 l 465 186 m 776 0 l 747 157 q 727 125 744 149 q 688 75 710 101 q 646 26 667 49 q 615 0 625 4 l 28 0 q 31 10 31 11 l 31 14 l 531 653 q 547 675 535 661 q 574 702 560 689 q 603 726 589 715 q 628 736 618 736 l 861 736 q 887 721 875 736 q 907 683 899 706 q 922 637 915 661 q 932 596 928 613 l 1024 0 l 776 0 m 710 907 q 756 965 722 942 q 826 989 789 989 q 881 965 864 989 q 886 907 899 942 q 839 849 874 872 q 767 825 804 825 q 713 849 729 825 q 710 907 697 872 z "},"Æ":{"ha":1615,"x_min":28,"x_max":1839,"o":"m 1047 736 l 1839 736 q 1806 685 1829 717 q 1758 624 1783 654 q 1708 571 1732 593 q 1672 549 1683 549 l 1244 549 l 1165 331 l 1297 458 l 1618 458 l 1419 271 l 1143 271 l 1113 188 l 1644 188 q 1638 176 1643 185 q 1626 157 1632 167 q 1615 139 1621 147 q 1608 129 1610 131 q 1574 90 1596 113 q 1532 48 1553 68 q 1495 14 1511 28 q 1478 0 1479 0 l 776 0 l 747 157 q 727 125 744 149 q 688 75 710 101 q 646 26 667 49 q 615 0 625 4 l 28 0 q 31 10 31 11 l 31 14 l 531 653 q 547 675 535 661 q 574 702 560 689 q 603 726 589 715 q 628 736 618 736 l 861 736 q 886 721 874 736 q 908 683 899 706 q 924 638 918 661 q 932 596 931 614 l 951 472 l 1047 736 m 465 200 l 465 186 l 747 186 l 699 513 l 465 200 z "},"Ç":{"ha":876,"x_min":150,"x_max":1113,"o":"m 150 -161 l 513 -161 l 571 1 q 588 0 576 0 l 603 0 l 636 0 l 747 0 q 840 91 800 42 q 913 188 881 140 l 581 188 q 531 204 557 188 q 484 246 506 221 q 449 301 463 271 q 435 357 435 331 q 446 414 435 378 q 468 462 454 438 q 499 506 482 486 q 538 537 517 525 q 581 549 558 549 l 942 549 q 1031 637 990 590 q 1113 736 1072 683 l 539 736 q 400 699 465 736 q 285 604 335 663 q 206 475 235 546 q 176 338 176 404 q 194 219 176 271 q 244 131 213 168 q 320 68 276 93 q 415 28 364 43 l 393 -33 l 319 -33 l 150 -161 z "},"È":{"ha":868,"x_min":39,"x_max":1099,"o":"m 39 0 l 307 736 l 1099 736 q 1066 685 1089 717 q 1017 624 1043 654 q 967 571 992 593 q 932 549 943 549 l 504 549 l 425 331 l 557 458 l 878 458 l 679 271 l 403 271 l 372 188 l 904 188 q 897 176 903 185 q 886 157 892 167 q 875 139 881 147 q 868 129 869 131 q 834 90 856 113 q 792 48 813 68 q 755 14 771 28 q 738 0 739 0 l 39 0 m 764 961 l 775 931 q 778 902 775 917 q 774 868 781 888 q 763 845 769 856 q 744 829 756 835 l 736 824 q 721 821 725 821 q 680 835 701 821 q 651 867 658 849 l 642 899 q 638 915 639 907 q 640 933 636 924 q 692 992 651 969 q 731 1003 721 1003 q 753 990 746 1003 q 764 961 760 976 z "},"É":{"ha":868,"x_min":39,"x_max":1099,"o":"m 39 0 l 307 736 l 1099 736 q 1066 685 1089 717 q 1017 624 1043 654 q 967 571 992 593 q 932 549 943 549 l 504 549 l 425 331 l 557 458 l 878 458 l 679 271 l 403 271 l 372 188 l 904 188 q 897 176 903 185 q 886 157 892 167 q 875 139 881 147 q 868 129 869 131 q 834 90 856 113 q 792 48 813 68 q 755 14 771 28 q 738 0 739 0 l 39 0 m 685 932 l 718 963 q 750 991 733 978 q 782 1004 767 1004 q 813 993 797 1004 q 822 935 836 969 q 811 917 819 925 q 794 900 803 908 l 761 868 q 738 851 751 860 q 710 837 725 843 q 682 826 696 831 q 658 822 668 822 q 646 825 649 822 l 642 831 q 635 846 635 838 q 640 869 635 860 q 660 903 647 889 q 685 932 674 918 z "},"Ê":{"ha":868,"x_min":39,"x_max":1099,"o":"m 39 0 l 307 736 l 1099 736 q 1066 685 1089 717 q 1017 624 1043 654 q 967 571 992 593 q 932 549 943 549 l 504 549 l 425 331 l 557 458 l 878 458 l 679 271 l 403 271 l 372 188 l 904 188 q 897 176 903 185 q 886 157 892 167 q 875 139 881 147 q 868 129 869 131 q 834 90 856 113 q 792 48 813 68 q 755 14 771 28 q 738 0 739 0 l 39 0 m 733 910 l 651 828 l 525 828 l 674 974 q 690 984 681 978 q 706 990 699 990 l 792 990 q 812 978 803 990 q 826 958 821 967 l 892 828 l 778 828 l 733 910 z "},"Ë":{"ha":868,"x_min":39,"x_max":1099,"o":"m 39 0 l 307 736 l 1099 736 q 1066 685 1089 717 q 1017 624 1043 654 q 967 571 992 593 q 932 549 943 549 l 504 549 l 425 331 l 557 458 l 878 458 l 679 271 l 403 271 l 372 188 l 904 188 q 897 176 903 185 q 886 157 892 167 q 875 139 881 147 q 868 129 869 131 q 834 90 856 113 q 792 48 813 68 q 755 14 771 28 q 738 0 739 0 l 39 0 m 543 907 q 589 965 556 942 q 660 989 622 989 q 715 965 697 989 q 719 907 732 942 q 672 849 707 872 q 600 825 638 825 q 547 849 563 825 q 543 907 531 872 m 971 907 q 924 849 958 872 q 853 825 890 825 q 799 849 815 825 q 794 907 782 872 q 841 965 807 942 q 913 989 875 989 q 967 965 950 989 q 971 907 983 942 z "},"Ì":{"ha":344,"x_min":39,"x_max":574,"o":"m 544 925 q 549 897 546 911 q 544 863 551 882 q 533 840 540 850 q 515 824 526 829 l 506 818 q 492 815 503 815 q 450 829 472 815 q 422 861 428 843 l 413 893 q 408 910 410 901 q 410 928 407 918 q 461 986 424 963 q 500 997 490 997 q 523 984 515 997 q 533 956 531 971 l 544 925 m 307 736 l 574 736 l 306 0 l 39 0 l 307 736 z "},"Í":{"ha":344,"x_min":39,"x_max":601,"o":"m 306 0 l 39 0 l 307 736 l 574 736 l 306 0 m 450 928 l 483 958 q 515 987 499 974 q 547 1000 532 1000 q 578 989 563 1000 q 588 931 601 965 q 576 913 585 921 q 560 896 568 904 l 526 864 q 503 847 517 856 q 476 833 490 839 q 447 822 461 826 q 424 818 433 818 q 411 821 414 818 l 407 826 q 400 842 400 833 q 406 865 400 856 q 426 899 413 885 q 450 928 439 914 z "},"Î":{"ha":344,"x_min":39,"x_max":657,"o":"m 306 0 l 39 0 l 307 736 l 574 736 l 306 0 m 497 908 l 417 826 l 290 826 l 439 972 q 453 983 444 976 q 469 989 463 989 l 556 989 q 576 977 567 989 q 592 957 586 965 l 657 826 l 543 826 l 497 908 z "},"Ï":{"ha":344,"x_min":39,"x_max":732,"o":"m 306 0 l 39 0 l 307 736 l 574 736 l 306 0 m 292 907 q 338 965 304 942 q 408 989 371 989 q 463 965 446 989 q 468 907 481 942 q 421 849 456 872 q 349 825 386 825 q 295 849 311 825 q 292 907 279 872 m 719 907 q 673 849 707 872 q 601 825 639 825 q 547 849 564 825 q 543 907 531 872 q 590 965 556 942 q 661 989 624 989 q 715 965 699 989 q 719 907 732 942 z "},"Ð":{"ha":1074,"x_min":124,"x_max":1229,"o":"m 1135 338 q 1002 183 1068 247 q 865 78 936 118 q 714 19 794 38 q 538 0 633 0 l 192 0 l 290 271 l 124 271 l 322 458 l 358 458 l 460 736 l 1064 736 q 1174 699 1135 736 q 1221 603 1213 661 q 1207 475 1229 546 q 1135 338 1185 404 m 597 271 l 560 271 l 529 188 l 571 188 q 647 204 601 188 q 738 246 692 221 q 822 301 783 271 q 881 357 861 331 q 899 382 889 368 q 917 414 910 396 q 933 493 933 457 q 923 533 933 517 q 886 549 913 549 l 661 549 l 628 458 l 796 458 l 597 271 z "},"Ñ":{"ha":908,"x_min":39,"x_max":1138,"o":"m 306 0 l 39 0 l 307 736 l 643 736 l 722 322 l 874 736 l 1138 736 l 869 0 l 533 0 l 456 414 l 306 0 m 822 904 l 903 986 l 1029 986 q 1027 983 1029 986 q 1011 967 1025 981 q 967 924 997 953 q 881 840 936 894 q 866 830 875 836 q 850 824 857 824 l 736 824 l 690 906 l 610 824 l 483 824 l 632 969 q 647 980 639 974 q 663 986 656 986 l 776 986 l 822 904 z "},"Ò":{"ha":1001,"x_min":147,"x_max":1122,"o":"m 424 357 q 428 301 419 331 q 453 246 436 271 q 493 204 469 221 q 544 188 517 188 l 636 188 q 678 199 653 188 q 731 231 704 211 q 783 274 758 250 q 819 322 807 299 q 835 353 832 342 l 840 367 q 843 379 843 381 q 845 406 844 393 q 846 435 846 419 q 840 477 846 457 q 822 513 835 497 q 788 539 810 529 q 735 549 767 549 l 622 549 q 574 537 600 549 q 524 506 549 525 q 477 462 499 486 q 443 414 456 438 q 431 383 436 397 q 424 357 425 368 m 1107 399 q 1056 261 1097 332 q 952 132 1014 190 q 813 37 890 74 q 651 0 735 0 l 513 0 q 357 15 428 0 q 238 69 286 31 q 169 172 190 107 q 161 338 147 238 q 212 475 171 404 q 313 604 253 546 q 444 699 372 663 q 590 736 517 736 l 774 736 q 927 717 858 736 q 1040 658 996 699 q 1103 554 1085 618 q 1107 399 1122 490 m 863 958 l 874 928 q 877 899 874 914 q 874 865 881 885 q 861 842 868 853 q 844 826 854 832 l 835 821 q 819 818 832 818 q 778 832 800 818 q 750 864 757 846 l 742 896 q 738 913 739 904 q 739 931 736 921 q 790 989 753 965 q 829 1000 819 1000 q 852 987 844 1000 q 863 958 860 974 z "},"Ó":{"ha":1001,"x_min":147,"x_max":1122,"o":"m 424 357 q 428 301 419 331 q 453 246 436 271 q 493 204 469 221 q 544 188 517 188 l 636 188 q 678 199 653 188 q 731 231 704 211 q 783 274 758 250 q 819 322 807 299 q 835 353 832 342 l 840 367 q 843 379 843 381 q 845 406 844 393 q 846 435 846 419 q 840 477 846 457 q 822 513 835 497 q 788 539 810 529 q 735 549 767 549 l 622 549 q 574 537 600 549 q 524 506 549 525 q 477 462 499 486 q 443 414 456 438 q 431 383 436 397 q 424 357 425 368 m 1107 399 q 1056 261 1097 332 q 952 132 1014 190 q 813 37 890 74 q 651 0 735 0 l 513 0 q 357 15 428 0 q 238 69 286 31 q 169 172 190 107 q 161 338 147 238 q 212 475 171 404 q 313 604 253 546 q 444 699 372 663 q 590 736 517 736 l 774 736 q 927 717 858 736 q 1040 658 996 699 q 1103 554 1085 618 q 1107 399 1122 490 m 774 928 l 807 958 q 839 987 822 974 q 871 1000 856 1000 q 901 989 886 1000 q 911 931 925 965 q 900 913 908 921 q 883 896 892 904 l 850 864 q 827 847 840 856 q 799 833 814 839 q 771 822 785 826 q 747 818 757 818 q 735 821 738 818 l 731 826 q 724 842 724 833 q 729 865 724 856 q 749 899 736 885 q 774 928 763 914 z "},"Ô":{"ha":1001,"x_min":147,"x_max":1122,"o":"m 424 357 q 428 301 419 331 q 453 246 436 271 q 493 204 469 221 q 544 188 517 188 l 636 188 q 678 199 653 188 q 731 231 704 211 q 783 274 758 250 q 819 322 807 299 q 835 353 832 342 l 840 367 q 843 379 843 381 q 845 406 844 393 q 846 435 846 419 q 840 477 846 457 q 822 513 835 497 q 788 539 810 529 q 735 549 767 549 l 622 549 q 574 537 600 549 q 524 506 549 525 q 477 462 499 486 q 443 414 456 438 q 431 383 436 397 q 424 357 425 368 m 1107 399 q 1056 261 1097 332 q 952 132 1014 190 q 813 37 890 74 q 651 0 735 0 l 513 0 q 357 15 428 0 q 238 69 286 31 q 169 172 190 107 q 161 338 147 238 q 212 475 171 404 q 313 604 253 546 q 444 699 372 663 q 590 736 517 736 l 774 736 q 927 717 858 736 q 1040 658 996 699 q 1103 554 1085 618 q 1107 399 1122 490 m 806 907 l 724 825 l 597 825 l 746 971 q 762 981 753 975 q 778 988 771 988 l 864 988 q 884 976 875 988 q 899 956 893 964 l 964 825 l 850 825 l 806 907 z "},"Õ":{"ha":1001,"x_min":147,"x_max":1122,"o":"m 1107 399 q 1056 261 1097 332 q 952 132 1014 190 q 813 37 890 74 q 651 0 735 0 l 513 0 q 357 15 428 0 q 238 69 286 31 q 169 172 190 107 q 161 338 147 238 q 212 475 171 404 q 313 604 253 546 q 444 699 372 663 q 590 736 517 736 l 774 736 q 927 717 858 736 q 1040 658 996 699 q 1103 554 1085 618 q 1107 399 1122 490 m 424 357 q 428 301 419 331 q 453 246 436 271 q 493 204 469 221 q 544 188 517 188 l 636 188 q 678 199 653 188 q 731 231 704 211 q 783 274 758 250 q 819 322 807 299 q 835 353 832 342 l 840 367 q 843 379 843 381 q 845 406 844 393 q 846 435 846 419 q 840 477 846 457 q 822 513 835 497 q 788 539 810 529 q 735 549 767 549 l 622 549 q 574 537 600 549 q 524 506 549 525 q 477 462 499 486 q 443 414 456 438 q 431 383 436 397 q 424 357 425 368 m 872 904 l 953 986 l 1079 986 q 1077 983 1079 986 q 1061 967 1075 981 q 1017 924 1047 953 q 931 840 986 894 q 916 830 925 836 q 900 824 907 824 l 786 824 l 740 906 l 660 824 l 533 824 l 682 969 q 697 980 689 974 q 713 986 706 986 l 826 986 l 872 904 z "},"Ö":{"ha":1001,"x_min":147,"x_max":1122,"o":"m 424 357 q 428 301 419 331 q 453 246 436 271 q 493 204 469 221 q 544 188 517 188 l 636 188 q 678 199 653 188 q 731 231 704 211 q 783 274 758 250 q 819 322 807 299 q 835 353 832 342 l 840 367 q 843 379 843 381 q 845 406 844 393 q 846 435 846 419 q 840 477 846 457 q 822 513 835 497 q 788 539 810 529 q 735 549 767 549 l 622 549 q 574 537 600 549 q 524 506 549 525 q 477 462 499 486 q 443 414 456 438 q 431 383 436 397 q 424 357 425 368 m 1107 399 q 1056 261 1097 332 q 952 132 1014 190 q 813 37 890 74 q 651 0 735 0 l 513 0 q 357 15 428 0 q 238 69 286 31 q 169 172 190 107 q 161 338 147 238 q 212 475 171 404 q 313 604 253 546 q 444 699 372 663 q 590 736 517 736 l 774 736 q 927 717 858 736 q 1040 658 996 699 q 1103 554 1085 618 q 1107 399 1122 490 m 607 907 q 653 965 619 942 q 724 989 686 989 q 778 965 761 989 q 783 907 796 942 q 736 849 771 872 q 664 825 701 825 q 610 849 626 825 q 607 907 594 872 m 1035 907 q 988 849 1022 872 q 917 825 954 825 q 863 849 879 825 q 858 907 846 872 q 905 965 871 942 q 976 989 939 989 q 1031 965 1014 989 q 1035 907 1047 942 z "},"×":{"ha":554,"x_min":88,"x_max":729,"o":"m 260 174 l 374 264 l 419 174 l 592 174 l 496 364 l 729 553 l 557 553 l 447 464 l 400 553 l 228 553 l 322 364 l 88 174 l 260 174 z "},"Ø":{"ha":1001,"x_min":147,"x_max":1122,"o":"m 1107 399 q 1056 261 1097 332 q 952 132 1014 190 q 813 37 890 74 q 651 0 735 0 l 513 0 q 357 15 428 0 q 238 69 286 31 q 169 172 190 107 q 161 338 147 238 q 212 475 171 404 q 313 604 253 546 q 444 699 372 663 q 590 736 517 736 l 774 736 q 927 717 858 736 q 1040 658 996 699 q 1103 554 1085 618 q 1107 399 1122 490 m 843 379 q 843 454 847 414 l 493 204 q 544 188 515 188 l 636 188 q 678 199 653 188 q 731 231 704 211 q 783 274 758 250 q 819 322 807 299 q 835 353 832 342 l 840 367 q 843 379 843 381 m 424 357 q 422 326 421 342 q 428 294 424 310 l 779 542 q 735 549 751 549 l 622 549 q 574 537 600 549 q 524 506 549 525 q 477 462 499 486 q 443 414 456 438 q 431 383 436 397 q 424 357 425 368 z "},"Ù":{"ha":947,"x_min":129,"x_max":1176,"o":"m 197 428 l 307 736 l 569 736 q 494 516 521 594 q 456 399 468 438 q 440 349 443 360 q 438 335 438 339 q 447 228 428 268 q 517 188 465 188 l 585 188 q 647 201 618 188 q 697 236 675 215 q 736 281 719 257 q 763 324 753 304 l 913 736 l 1176 736 l 1051 393 q 981 224 1017 297 q 899 101 944 151 q 793 26 853 51 q 650 0 733 0 l 488 0 q 211 62 293 0 q 157 272 129 124 q 174 344 164 308 q 197 428 185 381 m 838 957 l 849 926 q 851 898 849 913 q 847 864 854 883 q 836 841 843 851 q 818 825 829 831 l 810 819 q 794 817 799 817 q 753 831 775 817 q 725 863 732 844 l 715 894 q 711 911 713 903 q 713 929 710 919 q 765 988 726 964 q 804 999 794 999 q 826 985 819 999 q 838 957 833 972 z "},"Ú":{"ha":947,"x_min":129,"x_max":1176,"o":"m 197 428 l 307 736 l 569 736 q 494 516 521 594 q 456 399 468 438 q 440 349 443 360 q 438 335 438 339 q 447 228 428 268 q 517 188 465 188 l 585 188 q 647 201 618 188 q 697 236 675 215 q 736 281 719 257 q 763 324 753 304 l 913 736 l 1176 736 l 1051 393 q 981 224 1017 297 q 899 101 944 151 q 793 26 853 51 q 650 0 733 0 l 488 0 q 211 62 293 0 q 157 272 129 124 q 174 344 164 308 q 197 428 185 381 m 756 926 l 789 957 q 821 985 804 972 q 853 999 838 999 q 883 988 868 999 q 892 929 906 964 q 881 911 889 919 q 864 894 872 903 l 832 863 q 809 846 822 854 q 781 831 796 838 q 753 821 767 825 q 729 817 739 817 q 717 819 717 817 l 711 825 q 705 841 704 831 q 710 864 706 851 q 731 898 717 883 q 756 926 744 913 z "},"Û":{"ha":947,"x_min":129,"x_max":1176,"o":"m 197 428 l 307 736 l 569 736 q 494 516 521 594 q 456 399 468 438 q 440 349 443 360 q 438 335 438 339 q 447 228 428 268 q 517 188 465 188 l 585 188 q 647 201 618 188 q 697 236 675 215 q 736 281 719 257 q 763 324 753 304 l 913 736 l 1176 736 l 1051 393 q 981 224 1017 297 q 899 101 944 151 q 793 26 853 51 q 650 0 733 0 l 488 0 q 211 62 293 0 q 157 272 129 124 q 174 344 164 308 q 197 428 185 381 m 782 907 l 701 825 l 575 825 l 724 971 q 739 981 731 975 q 754 988 747 988 l 840 988 q 861 976 851 988 q 876 956 871 964 l 942 825 l 828 825 l 782 907 z "},"Ü":{"ha":947,"x_min":129,"x_max":1176,"o":"m 586 906 q 633 964 599 940 q 704 988 667 988 q 758 964 742 988 q 763 906 775 940 q 716 847 750 871 q 644 824 682 824 q 590 847 607 824 q 586 906 574 871 m 197 428 l 307 736 l 569 736 q 494 516 521 594 q 456 399 468 438 q 440 349 443 360 q 438 335 438 339 q 447 228 428 268 q 517 188 465 188 l 585 188 q 647 201 618 188 q 697 236 675 215 q 736 281 719 257 q 763 324 753 304 l 913 736 l 1176 736 l 1051 393 q 981 224 1017 297 q 899 101 944 151 q 793 26 853 51 q 650 0 733 0 l 488 0 q 211 62 293 0 q 157 272 129 124 q 174 344 164 308 q 197 428 185 381 m 1014 906 q 968 847 1001 871 q 897 824 935 824 q 842 847 860 824 q 838 906 825 871 q 885 964 850 940 q 957 988 919 988 q 1010 964 994 988 q 1014 906 1026 940 z "},"Ý":{"ha":911,"x_min":293,"x_max":1154,"o":"m 450 350 l 293 736 l 590 736 l 660 563 l 857 736 l 1154 736 l 717 350 l 589 0 l 322 0 l 450 350 m 742 926 l 775 957 q 807 985 790 972 q 839 999 824 999 q 869 988 854 999 q 878 929 892 964 q 867 911 875 919 q 850 894 858 903 l 818 863 q 795 846 808 854 q 767 831 782 838 q 739 821 753 825 q 715 817 725 817 q 703 819 703 817 l 697 825 q 691 841 690 831 q 696 864 692 851 q 717 898 703 883 q 742 926 731 913 z "},"Þ":{"ha":944,"x_min":39,"x_max":1035,"o":"m 39 0 l 307 736 l 574 736 l 524 597 l 894 597 q 956 576 929 597 q 999 523 982 554 q 1024 456 1015 492 q 1035 393 1033 421 q 1006 286 1035 335 q 935 202 978 238 q 840 147 892 167 q 742 128 789 128 l 351 128 l 306 0 l 39 0 m 454 408 l 378 197 l 511 315 l 733 315 q 740 322 735 315 q 750 336 744 328 q 760 352 756 344 q 765 364 764 360 l 768 371 q 767 375 768 372 q 767 378 767 378 q 752 397 763 385 q 739 408 742 408 l 454 408 z "},"ß":{"ha":932,"x_min":-32,"x_max":1060,"o":"m -32 -196 l 235 -196 l 504 547 l 764 547 q 777 535 767 547 q 792 517 788 524 q 792 514 792 517 q 794 510 793 511 l 792 503 q 785 491 790 499 q 775 475 781 483 q 765 460 769 467 q 758 454 760 454 l 708 454 l 494 267 l 697 267 q 697 247 697 257 q 693 233 696 238 l 690 226 q 687 222 689 225 q 685 219 685 219 q 672 210 681 215 q 656 201 664 206 q 640 192 647 196 q 633 189 633 189 l 475 189 q 403 101 436 149 q 333 0 369 53 l 651 0 q 784 10 733 0 q 867 42 835 21 q 919 99 899 64 q 960 182 939 133 l 965 197 q 980 241 972 215 q 988 286 988 267 q 972 329 986 314 q 953 356 958 344 q 992 382 972 364 q 1026 424 1011 400 q 1051 476 1042 449 q 1060 529 1060 503 l 1060 532 q 1051 595 1060 560 q 1026 662 1043 631 q 982 715 1008 693 q 919 736 956 736 l 385 736 q 306 646 343 692 q 240 553 268 600 l -32 -196 z "},"à":{"ha":1049,"x_min":28,"x_max":1024,"o":"m 465 186 l 747 186 l 699 513 l 465 200 l 465 186 m 776 0 l 747 157 q 727 125 744 149 q 688 75 710 101 q 646 26 667 49 q 615 0 625 4 l 28 0 q 31 10 31 11 l 31 14 l 531 653 q 547 675 535 661 q 574 702 560 689 q 603 726 589 715 q 628 736 618 736 l 861 736 q 887 721 875 736 q 907 683 899 706 q 922 637 915 661 q 932 596 928 613 l 1024 0 l 776 0 m 835 924 q 838 895 835 910 q 835 861 842 881 q 822 838 829 849 q 804 822 815 828 l 796 817 q 781 814 793 814 q 740 828 761 814 q 711 860 718 842 l 703 892 q 698 908 700 900 q 700 926 696 917 q 751 985 714 961 q 790 996 781 996 q 813 983 806 996 q 824 954 821 969 l 835 924 z "},"á":{"ha":1049,"x_min":28,"x_max":1024,"o":"m 465 186 l 747 186 l 699 513 l 465 200 l 465 186 m 776 0 l 747 157 q 727 125 744 149 q 688 75 710 101 q 646 26 667 49 q 615 0 625 4 l 28 0 q 31 10 31 11 l 31 14 l 531 653 q 547 675 535 661 q 574 702 560 689 q 603 726 589 715 q 628 736 618 736 l 861 736 q 887 721 875 736 q 907 683 899 706 q 922 637 915 661 q 932 596 928 613 l 1024 0 l 776 0 m 743 925 l 776 956 q 808 984 792 971 q 840 997 825 997 q 871 986 856 997 q 881 928 894 963 q 869 910 878 918 q 853 893 861 901 l 821 861 q 769 829 801 843 q 718 815 738 815 q 704 818 707 815 l 700 824 q 694 840 693 829 q 699 863 694 850 q 719 897 706 882 q 743 925 733 911 z "},"â":{"ha":1049,"x_min":28,"x_max":1024,"o":"m 465 186 l 747 186 l 699 513 l 465 200 l 465 186 m 776 0 l 747 157 q 727 125 744 149 q 688 75 710 101 q 646 26 667 49 q 615 0 625 4 l 28 0 q 31 10 31 11 l 31 14 l 531 653 q 547 675 535 661 q 574 702 560 689 q 603 726 589 715 q 628 736 618 736 l 861 736 q 887 721 875 736 q 907 683 899 706 q 922 637 915 661 q 932 596 928 613 l 1024 0 l 776 0 m 788 906 l 708 824 q 582 824 581 822 l 731 969 q 745 980 738 974 q 760 986 753 986 l 846 986 q 867 974 857 986 q 883 954 878 963 l 949 824 l 835 824 l 788 906 z "},"ã":{"ha":1049,"x_min":28,"x_max":1086,"o":"m 465 186 l 747 186 l 699 513 l 465 200 l 465 186 m 776 0 l 747 157 q 727 125 744 149 q 688 75 710 101 q 646 26 667 49 q 615 0 625 4 l 28 0 q 31 10 31 11 l 31 14 l 531 653 q 547 675 535 661 q 574 702 560 689 q 603 726 589 715 q 628 736 618 736 l 861 736 q 887 721 875 736 q 907 683 899 706 q 922 637 915 661 q 932 596 928 613 l 1024 0 l 776 0 m 879 904 l 960 986 l 1086 986 q 1084 983 1086 986 q 1068 967 1082 981 q 1024 924 1054 953 q 938 840 993 894 q 923 830 932 836 q 907 824 914 824 l 793 824 l 747 906 l 667 824 l 540 824 l 689 969 q 704 980 696 974 q 719 986 713 986 l 833 986 l 879 904 z "},"ä":{"ha":1049,"x_min":28,"x_max":1024,"o":"m 465 186 l 747 186 l 699 513 l 465 200 l 465 186 m 776 0 l 747 157 q 727 125 744 149 q 688 75 710 101 q 646 26 667 49 q 615 0 625 4 l 28 0 q 31 10 31 11 l 31 14 l 531 653 q 547 675 535 661 q 574 702 560 689 q 603 726 589 715 q 628 736 618 736 l 861 736 q 887 721 875 736 q 907 683 899 706 q 922 637 915 661 q 932 596 928 613 l 1024 0 l 776 0 m 582 907 q 628 965 594 942 q 699 989 661 989 q 753 965 736 989 q 758 907 771 942 q 711 849 746 872 q 639 825 676 825 q 585 849 601 825 q 582 907 569 872 m 1010 907 q 963 849 997 872 q 892 825 929 825 q 838 849 854 825 q 833 907 821 872 q 880 965 846 942 q 951 989 914 989 q 1006 965 989 989 q 1010 907 1022 942 z "},"å":{"ha":1049,"x_min":28,"x_max":1024,"o":"m 465 186 l 747 186 l 699 513 l 465 200 l 465 186 m 776 0 l 747 157 q 727 125 744 149 q 688 75 710 101 q 646 26 667 49 q 615 0 625 4 l 28 0 q 31 10 31 11 l 31 14 l 531 653 q 547 675 535 661 q 574 702 560 689 q 603 726 589 715 q 628 736 618 736 l 861 736 q 887 721 875 736 q 907 683 899 706 q 922 637 915 661 q 932 596 928 613 l 1024 0 l 776 0 m 710 907 q 756 965 722 942 q 826 989 789 989 q 881 965 864 989 q 886 907 899 942 q 839 849 874 872 q 767 825 804 825 q 713 849 729 825 q 710 907 697 872 z "},"æ":{"ha":1615,"x_min":28,"x_max":1839,"o":"m 1047 736 l 1839 736 q 1806 685 1829 717 q 1758 624 1783 654 q 1708 571 1732 593 q 1672 549 1683 549 l 1244 549 l 1165 331 l 1297 458 l 1618 458 l 1419 271 l 1143 271 l 1113 188 l 1644 188 q 1638 176 1643 185 q 1626 157 1632 167 q 1615 139 1621 147 q 1608 129 1610 131 q 1574 90 1596 113 q 1532 48 1553 68 q 1495 14 1511 28 q 1478 0 1479 0 l 776 0 l 747 157 q 727 125 744 149 q 688 75 710 101 q 646 26 667 49 q 615 0 625 4 l 28 0 q 31 10 31 11 l 31 14 l 531 653 q 547 675 535 661 q 574 702 560 689 q 603 726 589 715 q 628 736 618 736 l 861 736 q 886 721 874 736 q 908 683 899 706 q 924 638 918 661 q 932 596 931 614 l 951 472 l 1047 736 m 465 200 l 465 186 l 747 186 l 699 513 l 465 200 z "},"ç":{"ha":876,"x_min":150,"x_max":1113,"o":"m 150 -161 l 513 -161 l 571 1 q 588 0 576 0 l 603 0 l 636 0 l 747 0 q 840 91 800 42 q 913 188 881 140 l 581 188 q 531 204 557 188 q 484 246 506 221 q 449 301 463 271 q 435 357 435 331 q 446 414 435 378 q 468 462 454 438 q 499 506 482 486 q 538 537 517 525 q 581 549 558 549 l 942 549 q 1031 637 990 590 q 1113 736 1072 683 l 539 736 q 400 699 465 736 q 285 604 335 663 q 206 475 235 546 q 176 338 176 404 q 194 219 176 271 q 244 131 213 168 q 320 68 276 93 q 415 28 364 43 l 393 -33 l 319 -33 l 150 -161 z "},"è":{"ha":868,"x_min":39,"x_max":1099,"o":"m 39 0 l 307 736 l 1099 736 q 1066 685 1089 717 q 1017 624 1043 654 q 967 571 992 593 q 932 549 943 549 l 504 549 l 425 331 l 557 458 l 878 458 l 679 271 l 403 271 l 372 188 l 904 188 q 897 176 903 185 q 886 157 892 167 q 875 139 881 147 q 868 129 869 131 q 834 90 856 113 q 792 48 813 68 q 755 14 771 28 q 738 0 739 0 l 39 0 m 764 961 l 775 931 q 778 902 775 917 q 774 868 781 888 q 763 845 769 856 q 744 829 756 835 l 736 824 q 721 821 725 821 q 680 835 701 821 q 651 867 658 849 l 642 899 q 638 915 639 907 q 640 933 636 924 q 692 992 651 969 q 731 1003 721 1003 q 753 990 746 1003 q 764 961 760 976 z "},"é":{"ha":868,"x_min":39,"x_max":1099,"o":"m 39 0 l 307 736 l 1099 736 q 1066 685 1089 717 q 1017 624 1043 654 q 967 571 992 593 q 932 549 943 549 l 504 549 l 425 331 l 557 458 l 878 458 l 679 271 l 403 271 l 372 188 l 904 188 q 897 176 903 185 q 886 157 892 167 q 875 139 881 147 q 868 129 869 131 q 834 90 856 113 q 792 48 813 68 q 755 14 771 28 q 738 0 739 0 l 39 0 m 685 932 l 718 963 q 750 991 733 978 q 782 1004 767 1004 q 813 993 797 1004 q 822 935 836 969 q 811 917 819 925 q 794 900 803 908 l 761 868 q 738 851 751 860 q 710 837 725 843 q 682 826 696 831 q 658 822 668 822 q 646 825 649 822 l 642 831 q 635 846 635 838 q 640 869 635 860 q 660 903 647 889 q 685 932 674 918 z "},"ê":{"ha":868,"x_min":39,"x_max":1099,"o":"m 39 0 l 307 736 l 1099 736 q 1066 685 1089 717 q 1017 624 1043 654 q 967 571 992 593 q 932 549 943 549 l 504 549 l 425 331 l 557 458 l 878 458 l 679 271 l 403 271 l 372 188 l 904 188 q 897 176 903 185 q 886 157 892 167 q 875 139 881 147 q 868 129 869 131 q 834 90 856 113 q 792 48 813 68 q 755 14 771 28 q 738 0 739 0 l 39 0 m 733 910 l 651 828 l 525 828 l 674 974 q 690 984 681 978 q 706 990 699 990 l 792 990 q 812 978 803 990 q 826 958 821 967 l 892 828 l 778 828 l 733 910 z "},"ë":{"ha":868,"x_min":39,"x_max":1099,"o":"m 39 0 l 307 736 l 1099 736 q 1066 685 1089 717 q 1017 624 1043 654 q 967 571 992 593 q 932 549 943 549 l 504 549 l 425 331 l 557 458 l 878 458 l 679 271 l 403 271 l 372 188 l 904 188 q 897 176 903 185 q 886 157 892 167 q 875 139 881 147 q 868 129 869 131 q 834 90 856 113 q 792 48 813 68 q 755 14 771 28 q 738 0 739 0 l 39 0 m 543 907 q 589 965 556 942 q 660 989 622 989 q 715 965 697 989 q 719 907 732 942 q 672 849 707 872 q 600 825 638 825 q 547 849 563 825 q 543 907 531 872 m 971 907 q 924 849 958 872 q 853 825 890 825 q 799 849 815 825 q 794 907 782 872 q 841 965 807 942 q 913 989 875 989 q 967 965 950 989 q 971 907 983 942 z "},"ì":{"ha":344,"x_min":39,"x_max":574,"o":"m 544 925 q 549 897 546 911 q 544 863 551 882 q 533 840 540 850 q 515 824 526 829 l 506 818 q 492 815 503 815 q 450 829 472 815 q 422 861 428 843 l 413 893 q 408 910 410 901 q 410 928 407 918 q 461 986 424 963 q 500 997 490 997 q 523 984 515 997 q 533 956 531 971 l 544 925 m 307 736 l 574 736 l 306 0 l 39 0 l 307 736 z "},"í":{"ha":344,"x_min":39,"x_max":601,"o":"m 306 0 l 39 0 l 307 736 l 574 736 l 306 0 m 450 928 l 483 958 q 515 987 499 974 q 547 1000 532 1000 q 578 989 563 1000 q 588 931 601 965 q 576 913 585 921 q 560 896 568 904 l 526 864 q 503 847 517 856 q 476 833 490 839 q 447 822 461 826 q 424 818 433 818 q 411 821 414 818 l 407 826 q 400 842 400 833 q 406 865 400 856 q 426 899 413 885 q 450 928 439 914 z "},"î":{"ha":344,"x_min":39,"x_max":657,"o":"m 306 0 l 39 0 l 307 736 l 574 736 l 306 0 m 497 908 l 417 826 l 290 826 l 439 972 q 453 983 444 976 q 469 989 463 989 l 556 989 q 576 977 567 989 q 592 957 586 965 l 657 826 l 543 826 l 497 908 z "},"ï":{"ha":344,"x_min":39,"x_max":732,"o":"m 306 0 l 39 0 l 307 736 l 574 736 l 306 0 m 292 907 q 338 965 304 942 q 408 989 371 989 q 463 965 446 989 q 468 907 481 942 q 421 849 456 872 q 349 825 386 825 q 295 849 311 825 q 292 907 279 872 m 719 907 q 673 849 707 872 q 601 825 639 825 q 547 849 564 825 q 543 907 531 872 q 590 965 556 942 q 661 989 624 989 q 715 965 699 989 q 719 907 732 942 z "},"ð":{"ha":897,"x_min":113,"x_max":1053,"o":"m 138 271 q 233 395 175 347 q 379 458 290 443 l 757 458 q 754 522 764 494 q 710 549 744 549 l 349 549 q 322 637 329 590 q 314 736 315 683 l 888 736 q 999 699 960 736 q 1045 604 1038 663 q 1031 475 1053 546 q 958 338 1008 404 q 799 172 886 238 q 619 69 711 107 q 433 15 526 31 q 254 0 339 0 q 172 24 203 0 q 126 86 140 47 q 116 174 113 125 q 138 271 119 222 m 458 282 q 415 266 428 278 q 386 242 401 254 l 382 189 l 463 189 q 538 218 494 189 q 629 282 582 247 l 458 282 z "},"ñ":{"ha":908,"x_min":39,"x_max":1138,"o":"m 306 0 l 39 0 l 307 736 l 643 736 l 722 322 l 874 736 l 1138 736 l 869 0 l 533 0 l 456 414 l 306 0 m 822 904 l 903 986 l 1029 986 q 1027 983 1029 986 q 1011 967 1025 981 q 967 924 997 953 q 881 840 936 894 q 866 830 875 836 q 850 824 857 824 l 736 824 l 690 906 l 610 824 l 483 824 l 632 969 q 647 980 639 974 q 663 986 656 986 l 776 986 l 822 904 z "},"ò":{"ha":1001,"x_min":147,"x_max":1122,"o":"m 424 357 q 428 301 419 331 q 453 246 436 271 q 493 204 469 221 q 544 188 517 188 l 636 188 q 678 199 653 188 q 731 231 704 211 q 783 274 758 250 q 819 322 807 299 q 835 353 832 342 l 840 367 q 843 379 843 381 q 845 406 844 393 q 846 435 846 419 q 840 477 846 457 q 822 513 835 497 q 788 539 810 529 q 735 549 767 549 l 622 549 q 574 537 600 549 q 524 506 549 525 q 477 462 499 486 q 443 414 456 438 q 431 383 436 397 q 424 357 425 368 m 1107 399 q 1056 261 1097 332 q 952 132 1014 190 q 813 37 890 74 q 651 0 735 0 l 513 0 q 357 15 428 0 q 238 69 286 31 q 169 172 190 107 q 161 338 147 238 q 212 475 171 404 q 313 604 253 546 q 444 699 372 663 q 590 736 517 736 l 774 736 q 927 717 858 736 q 1040 658 996 699 q 1103 554 1085 618 q 1107 399 1122 490 m 863 958 l 874 928 q 877 899 874 914 q 874 865 881 885 q 861 842 868 853 q 844 826 854 832 l 835 821 q 819 818 832 818 q 778 832 800 818 q 750 864 757 846 l 742 896 q 738 913 739 904 q 739 931 736 921 q 790 989 753 965 q 829 1000 819 1000 q 852 987 844 1000 q 863 958 860 974 z "},"ó":{"ha":1001,"x_min":147,"x_max":1122,"o":"m 424 357 q 428 301 419 331 q 453 246 436 271 q 493 204 469 221 q 544 188 517 188 l 636 188 q 678 199 653 188 q 731 231 704 211 q 783 274 758 250 q 819 322 807 299 q 835 353 832 342 l 840 367 q 843 379 843 381 q 845 406 844 393 q 846 435 846 419 q 840 477 846 457 q 822 513 835 497 q 788 539 810 529 q 735 549 767 549 l 622 549 q 574 537 600 549 q 524 506 549 525 q 477 462 499 486 q 443 414 456 438 q 431 383 436 397 q 424 357 425 368 m 1107 399 q 1056 261 1097 332 q 952 132 1014 190 q 813 37 890 74 q 651 0 735 0 l 513 0 q 357 15 428 0 q 238 69 286 31 q 169 172 190 107 q 161 338 147 238 q 212 475 171 404 q 313 604 253 546 q 444 699 372 663 q 590 736 517 736 l 774 736 q 927 717 858 736 q 1040 658 996 699 q 1103 554 1085 618 q 1107 399 1122 490 m 774 928 l 807 958 q 839 987 822 974 q 871 1000 856 1000 q 901 989 886 1000 q 911 931 925 965 q 900 913 908 921 q 883 896 892 904 l 850 864 q 827 847 840 856 q 799 833 814 839 q 771 822 785 826 q 747 818 757 818 q 735 821 738 818 l 731 826 q 724 842 724 833 q 729 865 724 856 q 749 899 736 885 q 774 928 763 914 z "},"ô":{"ha":1001,"x_min":147,"x_max":1122,"o":"m 424 357 q 428 301 419 331 q 453 246 436 271 q 493 204 469 221 q 544 188 517 188 l 636 188 q 678 199 653 188 q 731 231 704 211 q 783 274 758 250 q 819 322 807 299 q 835 353 832 342 l 840 367 q 843 379 843 381 q 845 406 844 393 q 846 435 846 419 q 840 477 846 457 q 822 513 835 497 q 788 539 810 529 q 735 549 767 549 l 622 549 q 574 537 600 549 q 524 506 549 525 q 477 462 499 486 q 443 414 456 438 q 431 383 436 397 q 424 357 425 368 m 1107 399 q 1056 261 1097 332 q 952 132 1014 190 q 813 37 890 74 q 651 0 735 0 l 513 0 q 357 15 428 0 q 238 69 286 31 q 169 172 190 107 q 161 338 147 238 q 212 475 171 404 q 313 604 253 546 q 444 699 372 663 q 590 736 517 736 l 774 736 q 927 717 858 736 q 1040 658 996 699 q 1103 554 1085 618 q 1107 399 1122 490 m 806 907 l 724 825 l 597 825 l 746 971 q 762 981 753 975 q 778 988 771 988 l 864 988 q 884 976 875 988 q 899 956 893 964 l 964 825 l 850 825 l 806 907 z "},"õ":{"ha":1001,"x_min":156,"x_max":1114,"o":"m 1107 399 q 1056 261 1097 332 q 952 132 1014 190 q 813 37 890 74 q 651 0 735 0 l 513 0 q 369 13 435 0 q 257 56 304 25 q 183 138 210 86 q 156 267 156 189 q 161 333 156 306 l 161 338 q 212 475 171 404 q 313 604 253 546 q 444 699 372 663 q 590 736 517 736 l 774 736 q 911 722 849 736 q 1019 676 974 707 q 1089 594 1064 644 q 1114 475 1114 544 q 1112 438 1114 457 q 1107 399 1110 419 m 424 357 q 422 347 422 356 l 422 339 q 432 287 422 314 q 458 238 442 260 q 497 201 475 215 q 544 188 519 188 l 636 188 q 678 199 653 188 q 731 231 704 211 q 783 274 758 250 q 819 322 807 299 q 835 353 832 342 l 840 367 q 843 379 843 381 q 845 402 844 390 q 846 426 846 414 q 842 471 846 449 q 825 510 838 493 q 791 538 813 528 q 735 549 769 549 l 622 549 q 574 537 600 549 q 524 506 549 525 q 477 462 499 486 q 443 414 456 438 q 431 383 436 397 q 424 357 425 368 m 872 904 l 953 986 l 1079 986 q 1077 983 1079 986 q 1061 967 1075 981 q 1017 924 1047 953 q 931 840 986 894 q 916 830 925 836 q 900 824 907 824 l 786 824 l 740 906 l 660 824 l 533 824 l 682 969 q 697 980 689 974 q 713 986 706 986 l 826 986 l 872 904 z "},"ö":{"ha":1001,"x_min":147,"x_max":1122,"o":"m 424 357 q 428 301 419 331 q 453 246 436 271 q 493 204 469 221 q 544 188 517 188 l 636 188 q 678 199 653 188 q 731 231 704 211 q 783 274 758 250 q 819 322 807 299 q 835 353 832 342 l 840 367 q 843 379 843 381 q 845 406 844 393 q 846 435 846 419 q 840 477 846 457 q 822 513 835 497 q 788 539 810 529 q 735 549 767 549 l 622 549 q 574 537 600 549 q 524 506 549 525 q 477 462 499 486 q 443 414 456 438 q 431 383 436 397 q 424 357 425 368 m 1107 399 q 1056 261 1097 332 q 952 132 1014 190 q 813 37 890 74 q 651 0 735 0 l 513 0 q 357 15 428 0 q 238 69 286 31 q 169 172 190 107 q 161 338 147 238 q 212 475 171 404 q 313 604 253 546 q 444 699 372 663 q 590 736 517 736 l 774 736 q 927 717 858 736 q 1040 658 996 699 q 1103 554 1085 618 q 1107 399 1122 490 m 607 907 q 653 965 619 942 q 724 989 686 989 q 778 965 761 989 q 783 907 796 942 q 736 849 771 872 q 664 825 701 825 q 610 849 626 825 q 607 907 594 872 m 1035 907 q 988 849 1022 872 q 917 825 954 825 q 863 849 879 825 q 858 907 846 872 q 905 965 871 942 q 976 989 939 989 q 1031 965 1014 989 q 1035 907 1047 942 z "},"÷":{"ha":600,"x_min":124,"x_max":742,"o":"m 124 271 l 322 458 l 742 458 l 543 271 l 124 271 m 438 579 q 483 638 450 614 q 554 661 517 661 q 609 638 592 661 q 614 579 626 614 q 567 521 601 544 q 494 497 532 497 q 441 521 457 497 q 438 579 425 544 m 456 150 q 410 92 443 115 q 339 68 376 68 q 284 92 301 68 q 279 150 267 115 q 326 208 292 185 q 399 232 361 232 q 452 208 436 232 q 456 150 468 185 z "},"ø":{"ha":1001,"x_min":147,"x_max":1122,"o":"m 1107 399 q 1056 261 1097 332 q 952 132 1014 190 q 813 37 890 74 q 651 0 735 0 l 513 0 q 357 15 428 0 q 238 69 286 31 q 169 172 190 107 q 161 338 147 238 q 212 475 171 404 q 313 604 253 546 q 444 699 372 663 q 590 736 517 736 l 774 736 q 927 717 858 736 q 1040 658 996 699 q 1103 554 1085 618 q 1107 399 1122 490 m 843 379 q 843 454 847 414 l 493 204 q 544 188 515 188 l 636 188 q 678 199 653 188 q 731 231 704 211 q 783 274 758 250 q 819 322 807 299 q 835 353 832 342 l 840 367 q 843 379 843 381 m 424 357 q 422 326 421 342 q 428 294 424 310 l 779 542 q 735 549 751 549 l 622 549 q 574 537 600 549 q 524 506 549 525 q 477 462 499 486 q 443 414 456 438 q 431 383 436 397 q 424 357 425 368 z "},"ù":{"ha":947,"x_min":129,"x_max":1176,"o":"m 197 428 l 307 736 l 569 736 q 494 516 521 594 q 456 399 468 438 q 440 349 443 360 q 438 335 438 339 q 447 228 428 268 q 517 188 465 188 l 585 188 q 647 201 618 188 q 697 236 675 215 q 736 281 719 257 q 763 324 753 304 l 913 736 l 1176 736 l 1051 393 q 981 224 1017 297 q 899 101 944 151 q 793 26 853 51 q 650 0 733 0 l 488 0 q 211 62 293 0 q 157 272 129 124 q 174 344 164 308 q 197 428 185 381 m 838 957 l 849 926 q 851 898 849 913 q 847 864 854 883 q 836 841 843 851 q 818 825 829 831 l 810 819 q 794 817 799 817 q 753 831 775 817 q 725 863 732 844 l 715 894 q 711 911 713 903 q 713 929 710 919 q 765 988 726 964 q 804 999 794 999 q 826 985 819 999 q 838 957 833 972 z "},"ú":{"ha":947,"x_min":129,"x_max":1176,"o":"m 197 428 l 307 736 l 569 736 q 494 516 521 594 q 456 399 468 438 q 440 349 443 360 q 438 335 438 339 q 447 228 428 268 q 517 188 465 188 l 585 188 q 647 201 618 188 q 697 236 675 215 q 736 281 719 257 q 763 324 753 304 l 913 736 l 1176 736 l 1051 393 q 981 224 1017 297 q 899 101 944 151 q 793 26 853 51 q 650 0 733 0 l 488 0 q 211 62 293 0 q 157 272 129 124 q 174 344 164 308 q 197 428 185 381 m 756 926 l 789 957 q 821 985 804 972 q 853 999 838 999 q 883 988 868 999 q 892 929 906 964 q 881 911 889 919 q 864 894 872 903 l 832 863 q 809 846 822 854 q 781 831 796 838 q 753 821 767 825 q 729 817 739 817 q 717 819 717 817 l 711 825 q 705 841 704 831 q 710 864 706 851 q 731 898 717 883 q 756 926 744 913 z "},"û":{"ha":947,"x_min":129,"x_max":1176,"o":"m 197 428 l 307 736 l 569 736 q 494 516 521 594 q 456 399 468 438 q 440 349 443 360 q 438 335 438 339 q 447 228 428 268 q 517 188 465 188 l 585 188 q 647 201 618 188 q 697 236 675 215 q 736 281 719 257 q 763 324 753 304 l 913 736 l 1176 736 l 1051 393 q 981 224 1017 297 q 899 101 944 151 q 793 26 853 51 q 650 0 733 0 l 488 0 q 211 62 293 0 q 157 272 129 124 q 174 344 164 308 q 197 428 185 381 m 782 907 l 701 825 l 575 825 l 724 971 q 739 981 731 975 q 754 988 747 988 l 840 988 q 861 976 851 988 q 876 956 871 964 l 942 825 l 828 825 l 782 907 z "},"ü":{"ha":947,"x_min":129,"x_max":1176,"o":"m 586 906 q 633 964 599 940 q 704 988 667 988 q 758 964 742 988 q 763 906 775 940 q 716 847 750 871 q 644 824 682 824 q 590 847 607 824 q 586 906 574 871 m 197 428 l 307 736 l 569 736 q 494 516 521 594 q 456 399 468 438 q 440 349 443 360 q 438 335 438 339 q 447 228 428 268 q 517 188 465 188 l 585 188 q 647 201 618 188 q 697 236 675 215 q 736 281 719 257 q 763 324 753 304 l 913 736 l 1176 736 l 1051 393 q 981 224 1017 297 q 899 101 944 151 q 793 26 853 51 q 650 0 733 0 l 488 0 q 211 62 293 0 q 157 272 129 124 q 174 344 164 308 q 197 428 185 381 m 1014 906 q 968 847 1001 871 q 897 824 935 824 q 842 847 860 824 q 838 906 825 871 q 885 964 850 940 q 957 988 919 988 q 1010 964 994 988 q 1014 906 1026 940 z "},"ý":{"ha":911,"x_min":293,"x_max":1154,"o":"m 450 350 l 293 736 l 590 736 l 660 563 l 857 736 l 1154 736 l 717 350 l 589 0 l 322 0 l 450 350 m 742 926 l 775 957 q 807 985 790 972 q 839 999 824 999 q 869 988 854 999 q 878 929 892 964 q 867 911 875 919 q 850 894 858 903 l 818 863 q 795 846 808 854 q 767 831 782 838 q 739 821 753 825 q 715 817 725 817 q 703 819 703 817 l 697 825 q 691 841 690 831 q 696 864 692 851 q 717 898 703 883 q 742 926 731 913 z "},"þ":{"ha":944,"x_min":39,"x_max":1035,"o":"m 39 0 l 307 736 l 574 736 l 524 597 l 894 597 q 956 576 929 597 q 999 523 982 554 q 1024 456 1015 492 q 1035 393 1033 421 q 1006 286 1035 335 q 935 202 978 238 q 840 147 892 167 q 742 128 789 128 l 351 128 l 306 0 l 39 0 m 454 408 l 378 197 l 511 315 l 733 315 q 740 322 735 315 q 750 336 744 328 q 760 352 756 344 q 765 364 764 360 l 768 371 q 767 375 768 372 q 767 378 767 378 q 752 397 763 385 q 739 408 742 408 l 454 408 z "},"ÿ":{"ha":911,"x_min":293,"x_max":1154,"o":"m 450 350 l 293 736 l 590 736 l 660 563 l 857 736 l 1154 736 l 717 350 l 589 0 l 322 0 l 450 350 m 575 906 q 622 964 588 940 q 693 988 656 988 q 747 964 731 988 q 751 906 764 940 q 705 847 739 871 q 633 824 671 824 q 579 847 596 824 q 575 906 563 871 m 1003 906 q 957 847 990 871 q 886 824 924 824 q 831 847 849 824 q 826 906 814 871 q 874 964 839 940 q 946 988 908 988 q 999 964 983 988 q 1003 906 1015 940 z "}}}
